STARTFONT 2.1
FONT -gumix-asciicker-medium-r-normal--32-120-72-72-c-120-iso10646-1
SIZE 32 72 72
FONTBOUNDINGBOX 32 32 0 0
STARTPROPERTIES 23
ADD_STYLE_NAME ""
AVERAGE_WIDTH 120
CHARSET_ENCODING "1"
CHARSET_REGISTRY "ISO10646"
COPYRIGHT "gumix"
FAMILY_NAME "asciicker"
FOUNDRY "gumix"
MIN_SPACE 32
NOTICE "Licensed"
PIXEL_SIZE 32
POINT_SIZE 120
QUAD_WIDTH 32
RESOLUTION_X 72
RESOLUTION_Y 72
SETWIDTH_NAME "Normal"
SLANT "R"
SPACING "M"
WEIGHT 10
WEIGHT_NAME "Bold"
X_HEIGHT 10
DEFAULT_CHAR 33
FONT_DESCENT 0
FONT_ASCENT 32
ENDPROPERTIES
CHARS 256
STARTCHAR U+0000
ENCODING 0
SWIDTH 500 0
DWIDTH 32 0
BBX 32 32 0 0
BITMAP
00000000
00000000
00000000
00000000
00000000
00000000
00000000
00000000
00000000
00000000
00000000
00000000
00000000
00000000
00000000
00000000
00000000
00000000
00000000
00000000
00000000
00000000
00000000
00000000
00000000
00000000
00000000
00000000
00000000
00000000
00000000
00000000
ENDCHAR
STARTCHAR U+263A
ENCODING 9786
SWIDTH 500 0
DWIDTH 32 0
BBX 32 32 0 0
BITMAP
00000000
00000000
00FFFF00
00FFFF00
030000C0
030000C0
0C000030
0C000030
0C000030
0C000030
0C3C3C30
0C3C3C30
0C3C3C30
0C3C3C30
0C000030
0C000030
0C000030
0C000030
0C3FFC30
0C3FFC30
0C0FF030
0C0FF030
0C03C030
0C03C030
0C000030
0C000030
030000C0
030000C0
00FFFF00
00FFFF00
00000000
00000000
ENDCHAR
STARTCHAR U+263B
ENCODING 9787
SWIDTH 500 0
DWIDTH 32 0
BBX 32 32 0 0
BITMAP
00000000
00000000
00FFFF00
00FFFF00
03FFFFC0
03FFFFC0
0FFFFFF0
0FFFFFF0
0FFFFFF0
0FFFFFF0
0FC3C3F0
0FC3C3F0
0FC3C3F0
0FC3C3F0
0FFFFFF0
0FFFFFF0
0FFFFFF0
0FFFFFF0
0FC003F0
0FC003F0
0FF00FF0
0FF00FF0
0FFC3FF0
0FFC3FF0
0FFFFFF0
0FFFFFF0
03FFFFC0
03FFFFC0
00FFFF00
00FFFF00
00000000
00000000
ENDCHAR
STARTCHAR U+2665
ENCODING 9829
SWIDTH 500 0
DWIDTH 32 0
BBX 32 32 0 0
BITMAP
00000000
00000000
00000000
00000000
00F00F00
00F00F00
03FC3FC0
03FC3FC0
0FFFFFF0
0FFFFFF0
0FFFFFF0
0FFFFFF0
0FFFFFF0
0FFFFFF0
0FFFFFF0
0FFFFFF0
0FFFFFF0
0FFFFFF0
03FFFFC0
03FFFFC0
00FFFF00
00FFFF00
003FFC00
003FFC00
000FF000
000FF000
0003C000
0003C000
00000000
00000000
00000000
00000000
ENDCHAR
STARTCHAR U+2666
ENCODING 9830
SWIDTH 500 0
DWIDTH 32 0
BBX 32 32 0 0
BITMAP
00000000
00000000
0003C000
0003C000
000FF000
000FF000
003FFC00
003FFC00
00FFFF00
00FFFF00
03FFFFC0
03FFFFC0
0FFFFFF0
0FFFFFF0
3FFFFFFC
3FFFFFFC
3FFFFFFC
3FFFFFFC
0FFFFFF0
0FFFFFF0
03FFFFC0
03FFFFC0
00FFFF00
00FFFF00
003FFC00
003FFC00
000FF000
000FF000
0003C000
0003C000
00000000
00000000
ENDCHAR
STARTCHAR U+2663
ENCODING 9827
SWIDTH 500 0
DWIDTH 32 0
BBX 32 32 0 0
BITMAP
00000000
00000000
000FF000
000FF000
003FFC00
003FFC00
003FFC00
003FFC00
003FFC00
003FFC00
000FF000
000FF000
0FC3C3F0
0FC3C3F0
3FF3CFFC
3FF3CFFC
3FFFFFFC
3FFFFFFC
3FFFFFFC
3FFFFFFC
3FF3CFFC
3FF3CFFC
0FC3C3F0
0FC3C3F0
0003C000
0003C000
000FF000
000FF000
00FFFF00
00FFFF00
00000000
00000000
ENDCHAR
STARTCHAR U+2660
ENCODING 9824
SWIDTH 500 0
DWIDTH 32 0
BBX 32 32 0 0
BITMAP
00000000
00000000
0003C000
0003C000
000FF000
000FF000
003FFC00
003FFC00
00FFFF00
00FFFF00
03FFFFC0
03FFFFC0
03FFFFC0
03FFFFC0
0FFFFFF0
0FFFFFF0
0FFFFFF0
0FFFFFF0
0FFFFFF0
0FFFFFF0
03F3CFC0
03F3CFC0
0003C000
0003C000
0003C000
0003C000
000FF000
000FF000
00FFFF00
00FFFF00
00000000
00000000
ENDCHAR
STARTCHAR U+2022
ENCODING 8226
SWIDTH 500 0
DWIDTH 32 0
BBX 32 32 0 0
BITMAP
00000000
00000000
00000000
00000000
00000000
00000000
00000000
00000000
000FF000
000FF000
003FFC00
003FFC00
00FFFF00
00FFFF00
00FFFF00
00FFFF00
00FFFF00
00FFFF00
00FFFF00
00FFFF00
003FFC00
003FFC00
000FF000
000FF000
00000000
00000000
00000000
00000000
00000000
00000000
00000000
00000000
ENDCHAR
STARTCHAR U+25D8
ENCODING 9688
SWIDTH 500 0
DWIDTH 32 0
BBX 32 32 0 0
BITMAP
FFFFFFFF
FFFFFFFF
FFFFFFFF
FFFFFFFF
FFFFFFFF
FFFFFFFF
FFFFFFFF
FFFFFFFF
FFF00FFF
FFF00FFF
FFC003FF
FFC003FF
FF0000FF
FF0000FF
FF0000FF
FF0000FF
FF0000FF
FF0000FF
FF0000FF
FF0000FF
FFC003FF
FFC003FF
FFF00FFF
FFF00FFF
FFFFFFFF
FFFFFFFF
FFFFFFFF
FFFFFFFF
FFFFFFFF
FFFFFFFF
FFFFFFFF
FFFFFFFF
ENDCHAR
STARTCHAR U+25CB
ENCODING 9675
SWIDTH 500 0
DWIDTH 32 0
BBX 32 32 0 0
BITMAP
00000000
00000000
00000000
00000000
003FFC00
003FFC00
00FFFF00
00FFFF00
03FFFFC0
03FFFFC0
03C003C0
03C003C0
030000C0
030000C0
030000C0
030000C0
030000C0
030000C0
030000C0
030000C0
03C003C0
03C003C0
03FFFFC0
03FFFFC0
00FFFF00
00FFFF00
003FFC00
003FFC00
00000000
00000000
00000000
00000000
ENDCHAR
STARTCHAR U+25D9
ENCODING 9689
SWIDTH 500 0
DWIDTH 32 0
BBX 32 32 0 0
BITMAP
FFFFFFFF
FFFFFFFF
FFFFFFFF
FFFFFFFF
FFC003FF
FFC003FF
FF0000FF
FF0000FF
FC00003F
FC00003F
FC3FFC3F
FC3FFC3F
FCFFFF3F
FCFFFF3F
FCFFFF3F
FCFFFF3F
FCFFFF3F
FCFFFF3F
FCFFFF3F
FCFFFF3F
FC3FFC3F
FC3FFC3F
FC00003F
FC00003F
FF0000FF
FF0000FF
FFC003FF
FFC003FF
FFFFFFFF
FFFFFFFF
FFFFFFFF
FFFFFFFF
ENDCHAR
STARTCHAR U+2642
ENCODING 9794
SWIDTH 500 0
DWIDTH 32 0
BBX 32 32 0 0
BITMAP
00000000
00000000
003FFFC0
003FFFC0
00003FC0
00003FC0
0003FCC0
0003FCC0
003FF0C0
003FF0C0
00FF00C0
00FF00C0
03FFF000
03FFF000
0FC0FC00
0FC0FC00
0FC0FC00
0FC0FC00
0FC0FC00
0FC0FC00
0FC0FC00
0FC0FC00
0FC0FC00
0FC0FC00
03FFF000
03FFF000
00000000
00000000
00000000
00000000
00000000
00000000
ENDCHAR
STARTCHAR U+2640
ENCODING 9792
SWIDTH 500 0
DWIDTH 32 0
BBX 32 32 0 0
BITMAP
00000000
00000000
003FFF00
003FFF00
00FC0FC0
00FC0FC0
00FC0FC0
00FC0FC0
00FC0FC0
00FC0FC0
00FC0FC0
00FC0FC0
00FC0FC0
00FC0FC0
003FFF00
003FFF00
0003F000
0003F000
0003F000
0003F000
00FFFFC0
00FFFFC0
0003F000
0003F000
0003F000
0003F000
00000000
00000000
00000000
00000000
00000000
00000000
ENDCHAR
STARTCHAR U+266A
ENCODING 9834
SWIDTH 500 0
DWIDTH 32 0
BBX 32 32 0 0
BITMAP
00000000
00000000
0003FFF0
0003FFF0
0003F03C
0003F03C
0003F000
0003F000
0003FFF0
0003FFF0
0003F03C
0003F03C
0003F000
0003F000
0003F000
0003F000
0003F000
0003F000
00FFF000
00FFF000
0FFFF000
0FFFF000
0FFFF000
0FFFF000
00FF0000
00FF0000
00000000
00000000
00000000
00000000
00000000
00000000
ENDCHAR
STARTCHAR U+266B
ENCODING 9835
SWIDTH 500 0
DWIDTH 32 0
BBX 32 32 0 0
BITMAP
00000000
00000000
00FFFFFC
00FFFFFC
00FC00FC
00FC00FC
00FC00FC
00FC00FC
00FFFFFC
00FFFFFC
00FC00FC
00FC00FC
00FC00FC
00FC00FC
00FC00FC
00FC00FC
00FC00FC
00FC00FC
00FC0FFC
00FC0FFC
0FFC3FFC
0FFC3FFC
3FFC3FFC
3FFC3FFC
3FFC0FC0
3FFC0FC0
0FC00000
0FC00000
00000000
00000000
00000000
00000000
ENDCHAR
STARTCHAR U+263C
ENCODING 9788
SWIDTH 500 0
DWIDTH 32 0
BBX 32 32 0 0
BITMAP
00000000
00000000
00000000
00000000
0003C000
0003C000
03C3C3C0
03C3C3C0
03F3CFC0
03F3CFC0
00FFFF00
00FFFF00
003C3C00
003C3C00
0FF00FF0
0FF00FF0
0FF00FF0
0FF00FF0
003C3C00
003C3C00
00FFFF00
00FFFF00
03F3CFC0
03F3CFC0
03C3C3C0
03C3C3C0
0003C000
0003C000
00000000
00000000
00000000
00000000
ENDCHAR
STARTCHAR U+25BA
ENCODING 9658
SWIDTH 500 0
DWIDTH 32 0
BBX 32 32 0 0
BITMAP
00000000
00000000
3C000000
3C000000
3FC00000
3FC00000
3FFC0000
3FFC0000
3FFFC000
3FFFC000
3FFFFC00
3FFFFC00
3FFFFFC0
3FFFFFC0
3FFFFFFC
3FFFFFFC
3FFFFFFC
3FFFFFFC
3FFFFFC0
3FFFFFC0
3FFFFC00
3FFFFC00
3FFFC000
3FFFC000
3FFC0000
3FFC0000
3FC00000
3FC00000
3C000000
3C000000
00000000
00000000
ENDCHAR
STARTCHAR U+25C4
ENCODING 9668
SWIDTH 500 0
DWIDTH 32 0
BBX 32 32 0 0
BITMAP
00000000
00000000
0000003C
0000003C
000003FC
000003FC
00003FFC
00003FFC
0003FFFC
0003FFFC
003FFFFC
003FFFFC
03FFFFFC
03FFFFFC
3FFFFFFC
3FFFFFFC
3FFFFFFC
3FFFFFFC
03FFFFFC
03FFFFFC
003FFFFC
003FFFFC
0003FFFC
0003FFFC
00003FFC
00003FFC
000003FC
000003FC
0000003C
0000003C
00000000
00000000
ENDCHAR
STARTCHAR U+2195
ENCODING 8597
SWIDTH 500 0
DWIDTH 32 0
BBX 32 32 0 0
BITMAP
00000000
00000000
0000C000
0000C000
0003F000
0003F000
000FFC00
000FFC00
003FFF00
003FFF00
00FFFFC0
00FFFFC0
0003F000
0003F000
0003F000
0003F000
0003F000
0003F000
0003F000
0003F000
00FFFFC0
00FFFFC0
003FFF00
003FFF00
000FFC00
000FFC00
0003F000
0003F000
0000C000
0000C000
00000000
00000000
ENDCHAR
STARTCHAR U+203C
ENCODING 8252
SWIDTH 500 0
DWIDTH 32 0
BBX 32 32 0 0
BITMAP
00000000
00000000
00000000
00000000
00FC3F00
00FC3F00
00FC3F00
00FC3F00
00FC3F00
00FC3F00
00FC3F00
00FC3F00
00FC3F00
00FC3F00
00FC3F00
00FC3F00
00FC3F00
00FC3F00
00000000
00000000
00000000
00000000
00FC3F00
00FC3F00
00FC3F00
00FC3F00
00FC3F00
00FC3F00
00000000
00000000
00000000
00000000
ENDCHAR
STARTCHAR U+00B6
ENCODING 182
SWIDTH 500 0
DWIDTH 32 0
BBX 32 32 0 0
BITMAP
00000000
00000000
03FFFFF0
03FFFFF0
0FFFFFF0
0FFFFFF0
0F0FC3F0
0F0FC3F0
0F0FC3F0
0F0FC3F0
0F0FC3F0
0F0FC3F0
0F0FC3F0
0F0FC3F0
0FFFC3F0
0FFFC3F0
03FFC3F0
03FFC3F0
000FC3F0
000FC3F0
000FC3F0
000FC3F0
000FC3F0
000FC3F0
000FC3F0
000FC3F0
000FC3F0
000FC3F0
000FC3F0
000FC3F0
00000000
00000000
ENDCHAR
STARTCHAR U+00A7
ENCODING 167
SWIDTH 500 0
DWIDTH 32 0
BBX 32 32 0 0
BITMAP
00000000
00000000
00FFFFC0
00FFFFC0
03FC00F0
03FC00F0
03F00030
03F00030
00FFC000
00FFC000
00FFFF00
00FFFF00
03F00FC0
03F00FC0
03F00FC0
03F00FC0
03F00FC0
03F00FC0
03F00FC0
03F00FC0
00FFFF00
00FFFF00
0003FF00
0003FF00
0C000FC0
0C000FC0
0F003FC0
0F003FC0
03FFFF00
03FFFF00
00000000
00000000
ENDCHAR
STARTCHAR U+25AC
ENCODING 9644
SWIDTH 500 0
DWIDTH 32 0
BBX 32 32 0 0
BITMAP
00000000
00000000
00000000
00000000
00000000
00000000
00000000
00000000
00000000
00000000
00000000
00000000
00000000
00000000
00000000
00000000
00000000
00000000
0FFFFFF0
0FFFFFF0
0FFFFFF0
0FFFFFF0
0FFFFFF0
0FFFFFF0
0FFFFFF0
0FFFFFF0
0FFFFFF0
0FFFFFF0
0FFFFFF0
0FFFFFF0
00000000
00000000
ENDCHAR
STARTCHAR U+21A8
ENCODING 8616
SWIDTH 500 0
DWIDTH 32 0
BBX 32 32 0 0
BITMAP
00000000
00000000
0000C000
0000C000
0003F000
0003F000
000FFC00
000FFC00
003FFF00
003FFF00
00FFFFC0
00FFFFC0
0003F000
0003F000
0003F000
0003F000
0003F000
0003F000
0003F000
0003F000
00FFFFC0
00FFFFC0
003FFF00
003FFF00
000FFC00
000FFC00
0003F000
0003F000
00FFFFC0
00FFFFC0
00FFFFC0
00FFFFC0
ENDCHAR
STARTCHAR U+2191
ENCODING 8593
SWIDTH 500 0
DWIDTH 32 0
BBX 32 32 0 0
BITMAP
00000000
00000000
00030000
00030000
000FC000
000FC000
003FF000
003FF000
00FFFC00
00FFFC00
03FFFF00
03FFFF00
0FFFFFC0
0FFFFFC0
0FFFFFC0
0FFFFFC0
000FC000
000FC000
000FC000
000FC000
000FC000
000FC000
000FC000
000FC000
000FC000
000FC000
000FC000
000FC000
00000000
00000000
00000000
00000000
ENDCHAR
STARTCHAR U+2193
ENCODING 8595
SWIDTH 500 0
DWIDTH 32 0
BBX 32 32 0 0
BITMAP
00000000
00000000
000FC000
000FC000
000FC000
000FC000
000FC000
000FC000
000FC000
000FC000
000FC000
000FC000
000FC000
000FC000
0FFFFFC0
0FFFFFC0
0FFFFFC0
0FFFFFC0
03FFFF00
03FFFF00
00FFFC00
00FFFC00
003FF000
003FF000
000FC000
000FC000
00030000
00030000
00000000
00000000
00000000
00000000
ENDCHAR
STARTCHAR U+2192
ENCODING 8594
SWIDTH 500 0
DWIDTH 32 0
BBX 32 32 0 0
BITMAP
00000000
00000000
00000000
00000000
00000000
00000000
0000F000
0000F000
0000FC00
0000FC00
0000FF00
0000FF00
0000FFC0
0000FFC0
0FFFFFF0
0FFFFFF0
0FFFFFFC
0FFFFFFC
0FFFFFF0
0FFFFFF0
0000FFC0
0000FFC0
0000FF00
0000FF00
0000FC00
0000FC00
0000F000
0000F000
00000000
00000000
00000000
00000000
ENDCHAR
STARTCHAR U+2190
ENCODING 8592
SWIDTH 500 0
DWIDTH 32 0
BBX 32 32 0 0
BITMAP
00000000
00000000
00000000
00000000
00000000
00000000
0003C000
0003C000
000FC000
000FC000
003FC000
003FC000
00FFC000
00FFC000
03FFFFFC
03FFFFFC
0FFFFFFC
0FFFFFFC
03FFFFFC
03FFFFFC
00FFC000
00FFC000
003FC000
003FC000
000FC000
000FC000
0003C000
0003C000
00000000
00000000
00000000
00000000
ENDCHAR
STARTCHAR U+221F
ENCODING 8735
SWIDTH 500 0
DWIDTH 32 0
BBX 32 32 0 0
BITMAP
00000000
00000000
00000000
00000000
00000000
00000000
00000000
00000000
00000000
00000000
0F000000
0F000000
0F000000
0F000000
0F000000
0F000000
0F000000
0F000000
0F000000
0F000000
0FFFFFF0
0FFFFFF0
00000000
00000000
00000000
00000000
00000000
00000000
00000000
00000000
00000000
00000000
ENDCHAR
STARTCHAR U+2194
ENCODING 8596
SWIDTH 500 0
DWIDTH 32 0
BBX 32 32 0 0
BITMAP
00000000
00000000
00000000
00000000
00000000
00000000
00000000
00000000
00300C00
00300C00
00F00F00
00F00F00
03F00FC0
03F00FC0
0FFFFFF0
0FFFFFF0
3FFFFFFC
3FFFFFFC
0FFFFFF0
0FFFFFF0
03F00FC0
03F00FC0
00F00F00
00F00F00
00300C00
00300C00
00000000
00000000
00000000
00000000
00000000
00000000
ENDCHAR
STARTCHAR U+25B2
ENCODING 9650
SWIDTH 500 0
DWIDTH 32 0
BBX 32 32 0 0
BITMAP
00000000
00000000
0003C000
0003C000
0003C000
0003C000
000FF000
000FF000
000FF000
000FF000
003FFC00
003FFC00
003FFC00
003FFC00
00FFFF00
00FFFF00
00FFFF00
00FFFF00
03FFFFC0
03FFFFC0
03FFFFC0
03FFFFC0
0FFFFFF0
0FFFFFF0
0FFFFFF0
0FFFFFF0
3FFFFFFC
3FFFFFFC
3FFFFFFC
3FFFFFFC
00000000
00000000
ENDCHAR
STARTCHAR U+25BC
ENCODING 9660
SWIDTH 500 0
DWIDTH 32 0
BBX 32 32 0 0
BITMAP
00000000
00000000
3FFFFFFC
3FFFFFFC
3FFFFFFC
3FFFFFFC
0FFFFFF0
0FFFFFF0
0FFFFFF0
0FFFFFF0
03FFFFC0
03FFFFC0
03FFFFC0
03FFFFC0
00FFFF00
00FFFF00
00FFFF00
00FFFF00
003FFC00
003FFC00
003FFC00
003FFC00
000FF000
000FF000
000FF000
000FF000
0003C000
0003C000
0003C000
0003C000
00000000
00000000
ENDCHAR
STARTCHAR U+0020
ENCODING 32
SWIDTH 500 0
DWIDTH 32 0
BBX 32 32 0 0
BITMAP
00000000
00000000
00000000
00000000
00000000
00000000
00000000
00000000
00000000
00000000
00000000
00000000
00000000
00000000
00000000
00000000
00000000
00000000
00000000
00000000
00000000
00000000
00000000
00000000
00000000
00000000
00000000
00000000
00000000
00000000
00000000
00000000
ENDCHAR
STARTCHAR U+0021
ENCODING 33
SWIDTH 500 0
DWIDTH 32 0
BBX 32 32 0 0
BITMAP
00000000
00000000
00000000
00000000
000FC000
000FC000
003FF000
003FF000
003FF000
003FF000
003FF000
003FF000
003FF000
003FF000
000FC000
000FC000
000FC000
000FC000
00000000
00000000
00000000
00000000
000FC000
000FC000
000FC000
000FC000
000FC000
000FC000
00000000
00000000
00000000
00000000
ENDCHAR
STARTCHAR U+0022
ENCODING 34
SWIDTH 500 0
DWIDTH 32 0
BBX 32 32 0 0
BITMAP
00000000
00000000
00000000
00000000
00FC0FC0
00FC0FC0
00FC0FC0
00FC0FC0
00FC0FC0
00FC0FC0
00FC0FC0
00FC0FC0
003C0F00
003C0F00
00000000
00000000
00000000
00000000
00000000
00000000
00000000
00000000
00000000
00000000
00000000
00000000
00000000
00000000
00000000
00000000
00000000
00000000
ENDCHAR
STARTCHAR U+0023
ENCODING 35
SWIDTH 500 0
DWIDTH 32 0
BBX 32 32 0 0
BITMAP
00000000
00000000
00000000
00000000
003C3C00
003C3C00
003C3C00
003C3C00
003C3C00
003C3C00
0FFFFFF0
0FFFFFF0
0FFFFFF0
0FFFFFF0
003C3C00
003C3C00
003C3C00
003C3C00
0FFFFFF0
0FFFFFF0
0FFFFFF0
0FFFFFF0
003C3C00
003C3C00
003C3C00
003C3C00
003C3C00
003C3C00
00000000
00000000
00000000
00000000
ENDCHAR
STARTCHAR U+0024
ENCODING 36
SWIDTH 500 0
DWIDTH 32 0
BBX 32 32 0 0
BITMAP
00000000
00000000
0003C000
0003C000
0003C000
0003C000
003FFFC0
003FFFC0
00FFFFC0
00FFFFC0
03F00000
03F00000
03F00000
03F00000
00FFFC00
00FFFC00
003FFF00
003FFF00
00000FC0
00000FC0
00000FC0
00000FC0
03FFFF00
03FFFF00
03FFFC00
03FFFC00
0003C000
0003C000
0003C000
0003C000
00000000
00000000
ENDCHAR
STARTCHAR U+0025
ENCODING 37
SWIDTH 500 0
DWIDTH 32 0
BBX 32 32 0 0
BITMAP
00000000
00000000
00000000
00000000
00000000
00000000
03F003C0
03F003C0
03F00FC0
03F00FC0
03F03F00
03F03F00
0000FC00
0000FC00
0003F000
0003F000
000FC000
000FC000
003F0000
003F0000
00FC0FC0
00FC0FC0
03F00FC0
03F00FC0
03C00FC0
03C00FC0
00000000
00000000
00000000
00000000
00000000
00000000
ENDCHAR
STARTCHAR U+0026
ENCODING 38
SWIDTH 500 0
DWIDTH 32 0
BBX 32 32 0 0
BITMAP
00000000
00000000
00000000
00000000
00FF0000
00FF0000
03C3C000
03C3C000
03C3C000
03C3C000
03C3C000
03C3C000
00FF0000
00FF0000
00FF00C0
00FF00C0
00FFC3C0
00FFC3C0
03C3FFC0
03C3FFC0
03C0FF00
03C0FF00
03C0FC00
03C0FC00
03C3FF00
03C3FF00
00FFC3C0
00FFC3C0
00000000
00000000
00000000
00000000
ENDCHAR
STARTCHAR U+0027
ENCODING 39
SWIDTH 500 0
DWIDTH 32 0
BBX 32 32 0 0
BITMAP
00000000
00000000
00000000
00000000
000FC000
000FC000
000FC000
000FC000
000FC000
000FC000
003F0000
003F0000
00000000
00000000
00000000
00000000
00000000
00000000
00000000
00000000
00000000
00000000
00000000
00000000
00000000
00000000
00000000
00000000
00000000
00000000
00000000
00000000
ENDCHAR
STARTCHAR U+0028
ENCODING 40
SWIDTH 500 0
DWIDTH 32 0
BBX 32 32 0 0
BITMAP
00000000
00000000
00000000
00000000
0000FF00
0000FF00
0003F000
0003F000
000FC000
000FC000
003F0000
003F0000
00FC0000
00FC0000
00FC0000
00FC0000
00FC0000
00FC0000
00FC0000
00FC0000
003F0000
003F0000
000FC000
000FC000
0003F000
0003F000
0000FF00
0000FF00
00000000
00000000
00000000
00000000
ENDCHAR
STARTCHAR U+0029
ENCODING 41
SWIDTH 500 0
DWIDTH 32 0
BBX 32 32 0 0
BITMAP
00000000
00000000
00000000
00000000
00FF0000
00FF0000
000FC000
000FC000
0003F000
0003F000
0000FC00
0000FC00
00003F00
00003F00
00003F00
00003F00
00003F00
00003F00
00003F00
00003F00
0000FC00
0000FC00
0003F000
0003F000
000FC000
000FC000
00FF0000
00FF0000
00000000
00000000
00000000
00000000
ENDCHAR
STARTCHAR U+002A
ENCODING 42
SWIDTH 500 0
DWIDTH 32 0
BBX 32 32 0 0
BITMAP
00000000
00000000
00000000
00000000
0003C000
0003C000
0303C0C0
0303C0C0
00C3C300
00C3C300
003FFC00
003FFC00
003FFC00
003FFC00
0FFFFFF0
0FFFFFF0
0FFFFFF0
0FFFFFF0
003FFC00
003FFC00
003FFC00
003FFC00
00C3C300
00C3C300
0303C0C0
0303C0C0
0003C000
0003C000
00000000
00000000
00000000
00000000
ENDCHAR
STARTCHAR U+002B
ENCODING 43
SWIDTH 500 0
DWIDTH 32 0
BBX 32 32 0 0
BITMAP
00000000
00000000
00000000
00000000
00000000
00000000
0003C000
0003C000
0003C000
0003C000
0003C000
0003C000
0003C000
0003C000
03FFFFC0
03FFFFC0
03FFFFC0
03FFFFC0
0003C000
0003C000
0003C000
0003C000
0003C000
0003C000
0003C000
0003C000
00000000
00000000
00000000
00000000
00000000
00000000
ENDCHAR
STARTCHAR U+002C
ENCODING 44
SWIDTH 500 0
DWIDTH 32 0
BBX 32 32 0 0
BITMAP
00000000
00000000
00000000
00000000
00000000
00000000
00000000
00000000
00000000
00000000
00000000
00000000
00000000
00000000
00000000
00000000
00000000
00000000
00000000
00000000
00000000
00000000
000FC000
000FC000
000FC000
000FC000
000FC000
000FC000
003F0000
003F0000
00000000
00000000
ENDCHAR
STARTCHAR U+002D
ENCODING 45
SWIDTH 500 0
DWIDTH 32 0
BBX 32 32 0 0
BITMAP
00000000
00000000
00000000
00000000
00000000
00000000
00000000
00000000
00000000
00000000
00000000
00000000
00000000
00000000
03FFFFC0
03FFFFC0
03FFFFC0
03FFFFC0
00000000
00000000
00000000
00000000
00000000
00000000
00000000
00000000
00000000
00000000
00000000
00000000
00000000
00000000
ENDCHAR
STARTCHAR U+002E
ENCODING 46
SWIDTH 500 0
DWIDTH 32 0
BBX 32 32 0 0
BITMAP
00000000
00000000
00000000
00000000
00000000
00000000
00000000
00000000
00000000
00000000
00000000
00000000
00000000
00000000
00000000
00000000
00000000
00000000
00000000
00000000
00000000
00000000
000FC000
000FC000
000FC000
000FC000
000FC000
000FC000
00000000
00000000
00000000
00000000
ENDCHAR
STARTCHAR U+002F
ENCODING 47
SWIDTH 500 0
DWIDTH 32 0
BBX 32 32 0 0
BITMAP
00000000
00000000
00000000
00000000
000000F0
000000F0
000003F0
000003F0
00000FC0
00000FC0
00003F00
00003F00
0000FC00
0000FC00
0003F000
0003F000
000FC000
000FC000
003F0000
003F0000
00FC0000
00FC0000
03F00000
03F00000
0FC00000
0FC00000
0F000000
0F000000
00000000
00000000
00000000
00000000
ENDCHAR
STARTCHAR U+0030
ENCODING 48
SWIDTH 500 0
DWIDTH 32 0
BBX 32 32 0 0
BITMAP
00000000
00000000
00000000
00000000
00FFFF00
00FFFF00
03F00FC0
03F00FC0
03F03FC0
03F03FC0
03F0FFC0
03F0FFC0
03F0FFC0
03F0FFC0
03F3CFC0
03F3CFC0
03F3CFC0
03F3CFC0
03FF0FC0
03FF0FC0
03FF0FC0
03FF0FC0
03FC0FC0
03FC0FC0
03F00FC0
03F00FC0
00FFFF00
00FFFF00
00000000
00000000
00000000
00000000
ENDCHAR
STARTCHAR U+0031
ENCODING 49
SWIDTH 500 0
DWIDTH 32 0
BBX 32 32 0 0
BITMAP
00000000
00000000
00000000
00000000
0000F000
0000F000
0000F000
0000F000
0003F000
0003F000
00FFF000
00FFF000
00FFF000
00FFF000
0003F000
0003F000
0003F000
0003F000
0003F000
0003F000
0003F000
0003F000
0003F000
0003F000
0003F000
0003F000
00FFFFC0
00FFFFC0
00000000
00000000
00000000
00000000
ENDCHAR
STARTCHAR U+0032
ENCODING 50
SWIDTH 500 0
DWIDTH 32 0
BBX 32 32 0 0
BITMAP
00000000
00000000
00000000
00000000
00FFFC00
00FFFC00
03F03F00
03F03F00
03F00FC0
03F00FC0
00000FC0
00000FC0
00003F00
00003F00
0000FC00
0000FC00
0003F000
0003F000
000FC000
000FC000
003F0000
003F0000
00FC0FC0
00FC0FC0
03F00FC0
03F00FC0
03FFFFC0
03FFFFC0
00000000
00000000
00000000
00000000
ENDCHAR
STARTCHAR U+0033
ENCODING 51
SWIDTH 500 0
DWIDTH 32 0
BBX 32 32 0 0
BITMAP
00000000
00000000
00000000
00000000
00FFFC00
00FFFC00
03F03F00
03F03F00
03F00FC0
03F00FC0
00000FC0
00000FC0
00003F00
00003F00
000FFC00
000FFC00
000FFC00
000FFC00
00003F00
00003F00
00000FC0
00000FC0
03F00FC0
03F00FC0
03F03F00
03F03F00
00FFFC00
00FFFC00
00000000
00000000
00000000
00000000
ENDCHAR
STARTCHAR U+0034
ENCODING 52
SWIDTH 500 0
DWIDTH 32 0
BBX 32 32 0 0
BITMAP
00000000
00000000
00000000
00000000
0000FC00
0000FC00
0003FC00
0003FC00
000FFC00
000FFC00
003CFC00
003CFC00
00F0FC00
00F0FC00
03C0FC00
03C0FC00
03FFFFC0
03FFFFC0
03FFFFC0
03FFFFC0
0000FC00
0000FC00
0000FC00
0000FC00
0000FC00
0000FC00
000FFFC0
000FFFC0
00000000
00000000
00000000
00000000
ENDCHAR
STARTCHAR U+0035
ENCODING 53
SWIDTH 500 0
DWIDTH 32 0
BBX 32 32 0 0
BITMAP
00000000
00000000
00000000
00000000
03FFFFC0
03FFFFC0
03F00000
03F00000
03F00000
03F00000
03F00000
03F00000
03F00000
03F00000
03FFFC00
03FFFC00
03FFFF00
03FFFF00
00003FC0
00003FC0
00000FC0
00000FC0
03F00FC0
03F00FC0
03F03F00
03F03F00
00FFFC00
00FFFC00
00000000
00000000
00000000
00000000
ENDCHAR
STARTCHAR U+0036
ENCODING 54
SWIDTH 500 0
DWIDTH 32 0
BBX 32 32 0 0
BITMAP
00000000
00000000
00000000
00000000
000FFC00
000FFC00
003F0000
003F0000
00FC0000
00FC0000
03F00000
03F00000
03F00000
03F00000
03FFFF00
03FFFF00
03FFFFC0
03FFFFC0
03F00FC0
03F00FC0
03F00FC0
03F00FC0
03F00FC0
03F00FC0
03F00FC0
03F00FC0
00FFFF00
00FFFF00
00000000
00000000
00000000
00000000
ENDCHAR
STARTCHAR U+0037
ENCODING 55
SWIDTH 500 0
DWIDTH 32 0
BBX 32 32 0 0
BITMAP
00000000
00000000
00000000
00000000
03FFFFF0
03FFFFF0
03F003F0
03F003F0
03F003F0
03F003F0
03F003F0
03F003F0
000003F0
000003F0
00000FC0
00000FC0
00003F00
00003F00
0000FC00
0000FC00
0003F000
0003F000
000FC000
000FC000
000FC000
000FC000
000FC000
000FC000
00000000
00000000
00000000
00000000
ENDCHAR
STARTCHAR U+0038
ENCODING 56
SWIDTH 500 0
DWIDTH 32 0
BBX 32 32 0 0
BITMAP
00000000
00000000
00000000
00000000
00FFFF00
00FFFF00
03F00FC0
03F00FC0
03F00FC0
03F00FC0
03F00FC0
03F00FC0
03FF0FC0
03FF0FC0
003FFC00
003FFC00
003FFC00
003FFC00
03F0FFC0
03F0FFC0
03F00FC0
03F00FC0
03F00FC0
03F00FC0
03F00FC0
03F00FC0
00FFFF00
00FFFF00
00000000
00000000
00000000
00000000
ENDCHAR
STARTCHAR U+0039
ENCODING 57
SWIDTH 500 0
DWIDTH 32 0
BBX 32 32 0 0
BITMAP
00000000
00000000
00000000
00000000
00FFFF00
00FFFF00
03F00FC0
03F00FC0
03F00FC0
03F00FC0
03F00FC0
03F00FC0
03F00FC0
03F00FC0
03FFFFC0
03FFFFC0
00FFFFC0
00FFFFC0
00000FC0
00000FC0
00000FC0
00000FC0
00003F00
00003F00
0000FC00
0000FC00
003FF000
003FF000
00000000
00000000
00000000
00000000
ENDCHAR
STARTCHAR U+003A
ENCODING 58
SWIDTH 500 0
DWIDTH 32 0
BBX 32 32 0 0
BITMAP
00000000
00000000
00000000
00000000
00000000
00000000
00000000
00000000
000FC000
000FC000
000FC000
000FC000
000FC000
000FC000
00000000
00000000
00000000
00000000
000FC000
000FC000
000FC000
000FC000
000FC000
000FC000
00000000
00000000
00000000
00000000
00000000
00000000
00000000
00000000
ENDCHAR
STARTCHAR U+003B
ENCODING 59
SWIDTH 500 0
DWIDTH 32 0
BBX 32 32 0 0
BITMAP
00000000
00000000
00000000
00000000
00000000
00000000
00000000
00000000
000FC000
000FC000
000FC000
000FC000
000FC000
000FC000
00000000
00000000
00000000
00000000
000FC000
000FC000
000FC000
000FC000
000FC000
000FC000
003F0000
003F0000
00000000
00000000
00000000
00000000
00000000
00000000
ENDCHAR
STARTCHAR U+003C
ENCODING 60
SWIDTH 500 0
DWIDTH 32 0
BBX 32 32 0 0
BITMAP
00000000
00000000
00003F00
00003F00
0000FC00
0000FC00
0003F000
0003F000
000FC000
000FC000
003F0000
003F0000
00FC0000
00FC0000
03F00000
03F00000
03F00000
03F00000
00FC0000
00FC0000
003F0000
003F0000
000FC000
000FC000
0003F000
0003F000
0000FC00
0000FC00
00003F00
00003F00
00000000
00000000
ENDCHAR
STARTCHAR U+003D
ENCODING 61
SWIDTH 500 0
DWIDTH 32 0
BBX 32 32 0 0
BITMAP
00000000
00000000
00000000
00000000
00000000
00000000
00000000
00000000
00000000
00000000
0FFFFFF0
0FFFFFF0
0FFFFFF0
0FFFFFF0
00000000
00000000
00000000
00000000
0FFFFFF0
0FFFFFF0
0FFFFFF0
0FFFFFF0
00000000
00000000
00000000
00000000
00000000
00000000
00000000
00000000
00000000
00000000
ENDCHAR
STARTCHAR U+003E
ENCODING 62
SWIDTH 500 0
DWIDTH 32 0
BBX 32 32 0 0
BITMAP
00000000
00000000
03F00000
03F00000
00FC0000
00FC0000
003F0000
003F0000
000FC000
000FC000
0003F000
0003F000
0000FC00
0000FC00
00003F00
00003F00
00003F00
00003F00
0000FC00
0000FC00
0003F000
0003F000
000FC000
000FC000
003F0000
003F0000
00FC0000
00FC0000
03F00000
03F00000
00000000
00000000
ENDCHAR
STARTCHAR U+003F
ENCODING 63
SWIDTH 500 0
DWIDTH 32 0
BBX 32 32 0 0
BITMAP
00000000
00000000
000FF000
000FF000
00FFFF00
00FFFF00
03FC3FC0
03FC3FC0
03C00FC0
03C00FC0
00003F00
00003F00
0000FC00
0000FC00
0003F000
0003F000
0003F000
0003F000
00000000
00000000
00000000
00000000
0003F000
0003F000
0003F000
0003F000
0003F000
0003F000
00000000
00000000
00000000
00000000
ENDCHAR
STARTCHAR U+0040
ENCODING 64
SWIDTH 500 0
DWIDTH 32 0
BBX 32 32 0 0
BITMAP
00000000
00000000
00FFFF00
00FFFF00
0FC00FC0
0FC00FC0
0FC00FC0
0FC00FC0
0FC00FC0
0FC00FC0
0FC00FC0
0FC00FC0
0FC3FFC0
0FC3FFC0
0FC3FFC0
0FC3FFC0
0FC3FFC0
0FC3FFC0
0FC3FFC0
0FC3FFC0
0FC00000
0FC00000
0FC00000
0FC00000
0FC00000
0FC00000
0FC00000
0FC00000
00FFFF00
00FFFF00
00000000
00000000
ENDCHAR
STARTCHAR U+0041
ENCODING 65
SWIDTH 500 0
DWIDTH 32 0
BBX 32 32 0 0
BITMAP
00000000
00000000
00000000
00000000
000FF000
000FF000
003FFC00
003FFC00
00FC3F00
00FC3F00
03F00FC0
03F00FC0
03F00FC0
03F00FC0
03F00FC0
03F00FC0
03F00FC0
03F00FC0
03FFFFC0
03FFFFC0
03F00FC0
03F00FC0
03F00FC0
03F00FC0
03F00FC0
03F00FC0
03F00FC0
03F00FC0
00000000
00000000
00000000
00000000
ENDCHAR
STARTCHAR U+0042
ENCODING 66
SWIDTH 500 0
DWIDTH 32 0
BBX 32 32 0 0
BITMAP
00000000
00000000
00000000
00000000
03FFFF00
03FFFF00
00FC0FC0
00FC0FC0
00FC0FC0
00FC0FC0
00FC0FC0
00FC0FC0
00FC0FC0
00FC0FC0
00FFFF00
00FFFF00
00FFFF00
00FFFF00
00FC0FC0
00FC0FC0
00FC0FC0
00FC0FC0
00FC0FC0
00FC0FC0
00FC0FC0
00FC0FC0
03FFFF00
03FFFF00
00000000
00000000
00000000
00000000
ENDCHAR
STARTCHAR U+0043
ENCODING 67
SWIDTH 500 0
DWIDTH 32 0
BBX 32 32 0 0
BITMAP
00000000
00000000
00000000
00000000
003FFF00
003FFF00
00FC0FC0
00FC0FC0
00FC0FC0
00FC0FC0
03F00000
03F00000
03F00000
03F00000
03F00000
03F00000
03F00000
03F00000
03F00000
03F00000
03F00000
03F00000
00FC0FC0
00FC0FC0
00FC0FC0
00FC0FC0
003FFF00
003FFF00
00000000
00000000
00000000
00000000
ENDCHAR
STARTCHAR U+0044
ENCODING 68
SWIDTH 500 0
DWIDTH 32 0
BBX 32 32 0 0
BITMAP
00000000
00000000
00000000
00000000
03FFFC00
03FFFC00
00FCFF00
00FCFF00
00FC3F00
00FC3F00
00FC0FC0
00FC0FC0
00FC0FC0
00FC0FC0
00FC0FC0
00FC0FC0
00FC0FC0
00FC0FC0
00FC0FC0
00FC0FC0
00FC0FC0
00FC0FC0
00FC3F00
00FC3F00
00FCFF00
00FCFF00
03FFFC00
03FFFC00
00000000
00000000
00000000
00000000
ENDCHAR
STARTCHAR U+0045
ENCODING 69
SWIDTH 500 0
DWIDTH 32 0
BBX 32 32 0 0
BITMAP
00000000
00000000
00000000
00000000
03FFFFC0
03FFFFC0
00FC03C0
00FC03C0
00FC00C0
00FC00C0
00FC0000
00FC0000
00FC0F00
00FC0F00
00FFFF00
00FFFF00
00FFFF00
00FFFF00
00FC0F00
00FC0F00
00FC0000
00FC0000
00FC00C0
00FC00C0
00FC03C0
00FC03C0
03FFFFC0
03FFFFC0
00000000
00000000
00000000
00000000
ENDCHAR
STARTCHAR U+0046
ENCODING 70
SWIDTH 500 0
DWIDTH 32 0
BBX 32 32 0 0
BITMAP
00000000
00000000
00000000
00000000
03FFFFC0
03FFFFC0
00FC03C0
00FC03C0
00FC00C0
00FC00C0
00FC0000
00FC0000
00FC0F00
00FC0F00
00FFFF00
00FFFF00
00FFFF00
00FFFF00
00FC0F00
00FC0F00
00FC0000
00FC0000
00FC0000
00FC0000
00FC0000
00FC0000
03FF0000
03FF0000
00000000
00000000
00000000
00000000
ENDCHAR
STARTCHAR U+0047
ENCODING 71
SWIDTH 500 0
DWIDTH 32 0
BBX 32 32 0 0
BITMAP
00000000
00000000
00000000
00000000
003FFF00
003FFF00
00FC0FC0
00FC0FC0
00FC0FC0
00FC0FC0
03F00FC0
03F00FC0
03F00000
03F00000
03F00000
03F00000
03F00000
03F00000
03F0FFC0
03F0FFC0
03F00FC0
03F00FC0
00FC0FC0
00FC0FC0
00FC0FC0
00FC0FC0
003FFFC0
003FFFC0
00000000
00000000
00000000
00000000
ENDCHAR
STARTCHAR U+0048
ENCODING 72
SWIDTH 500 0
DWIDTH 32 0
BBX 32 32 0 0
BITMAP
00000000
00000000
00000000
00000000
03F03F00
03F03F00
03F03F00
03F03F00
03F03F00
03F03F00
03F03F00
03F03F00
03F03F00
03F03F00
03FFFF00
03FFFF00
03FFFF00
03FFFF00
03F03F00
03F03F00
03F03F00
03F03F00
03F03F00
03F03F00
03F03F00
03F03F00
03F03F00
03F03F00
00000000
00000000
00000000
00000000
ENDCHAR
STARTCHAR U+0049
ENCODING 73
SWIDTH 500 0
DWIDTH 32 0
BBX 32 32 0 0
BITMAP
00000000
00000000
00000000
00000000
00FFFC00
00FFFC00
000FC000
000FC000
000FC000
000FC000
000FC000
000FC000
000FC000
000FC000
000FC000
000FC000
000FC000
000FC000
000FC000
000FC000
000FC000
000FC000
000FC000
000FC000
000FC000
000FC000
00FFFC00
00FFFC00
00000000
00000000
00000000
00000000
ENDCHAR
STARTCHAR U+004A
ENCODING 74
SWIDTH 500 0
DWIDTH 32 0
BBX 32 32 0 0
BITMAP
00000000
00000000
00000000
00000000
0003FFF0
0003FFF0
00003F00
00003F00
00003F00
00003F00
00003F00
00003F00
00003F00
00003F00
00003F00
00003F00
00003F00
00003F00
03F03F00
03F03F00
03F03F00
03F03F00
03F03F00
03F03F00
03F03F00
03F03F00
003FFC00
003FFC00
00000000
00000000
00000000
00000000
ENDCHAR
STARTCHAR U+004B
ENCODING 75
SWIDTH 500 0
DWIDTH 32 0
BBX 32 32 0 0
BITMAP
00000000
00000000
00000000
00000000
03FC0FC0
03FC0FC0
00FC0FC0
00FC0FC0
00FC3F00
00FC3F00
00FCFC00
00FCFC00
00FFF000
00FFF000
00FFC000
00FFC000
00FFC000
00FFC000
00FFF000
00FFF000
00FCFC00
00FCFC00
00FC3F00
00FC3F00
00FC0FC0
00FC0FC0
03FC0FC0
03FC0FC0
00000000
00000000
00000000
00000000
ENDCHAR
STARTCHAR U+004C
ENCODING 76
SWIDTH 500 0
DWIDTH 32 0
BBX 32 32 0 0
BITMAP
00000000
00000000
00000000
00000000
03FF0000
03FF0000
00FC0000
00FC0000
00FC0000
00FC0000
00FC0000
00FC0000
00FC0000
00FC0000
00FC0000
00FC0000
00FC0000
00FC0000
00FC0000
00FC0000
00FC0000
00FC0000
00FC03C0
00FC03C0
00FC0FC0
00FC0FC0
03FFFFC0
03FFFFC0
00000000
00000000
00000000
00000000
ENDCHAR
STARTCHAR U+004D
ENCODING 77
SWIDTH 500 0
DWIDTH 32 0
BBX 32 32 0 0
BITMAP
00000000
00000000
00000000
00000000
03F003F0
03F003F0
03FC0FF0
03FC0FF0
03FF3FF0
03FF3FF0
03FFFFF0
03FFFFF0
03FFFFF0
03FFFFF0
03F3F3F0
03F3F3F0
03F0C3F0
03F0C3F0
03F003F0
03F003F0
03F003F0
03F003F0
03F003F0
03F003F0
03F003F0
03F003F0
03F003F0
03F003F0
00000000
00000000
00000000
00000000
ENDCHAR
STARTCHAR U+004E
ENCODING 78
SWIDTH 500 0
DWIDTH 32 0
BBX 32 32 0 0
BITMAP
00000000
00000000
00000000
00000000
03F003F0
03F003F0
03F003F0
03F003F0
03FC03F0
03FC03F0
03FF03F0
03FF03F0
03FFC3F0
03FFC3F0
03F3F3F0
03F3F3F0
03F0FFF0
03F0FFF0
03F03FF0
03F03FF0
03F00FF0
03F00FF0
03F003F0
03F003F0
03F003F0
03F003F0
03F003F0
03F003F0
00000000
00000000
00000000
00000000
ENDCHAR
STARTCHAR U+004F
ENCODING 79
SWIDTH 500 0
DWIDTH 32 0
BBX 32 32 0 0
BITMAP
00000000
00000000
00000000
00000000
000FFC00
000FFC00
003FFF00
003FFF00
00FC0FC0
00FC0FC0
03F003F0
03F003F0
03F003F0
03F003F0
03F003F0
03F003F0
03F003F0
03F003F0
03F003F0
03F003F0
03F003F0
03F003F0
00FC0FC0
00FC0FC0
003FFF00
003FFF00
000FFC00
000FFC00
00000000
00000000
00000000
00000000
ENDCHAR
STARTCHAR U+0050
ENCODING 80
SWIDTH 500 0
DWIDTH 32 0
BBX 32 32 0 0
BITMAP
00000000
00000000
00000000
00000000
03FFFF00
03FFFF00
00FC0FC0
00FC0FC0
00FC0FC0
00FC0FC0
00FC0FC0
00FC0FC0
00FC0FC0
00FC0FC0
00FFFF00
00FFFF00
00FFFF00
00FFFF00
00FC0000
00FC0000
00FC0000
00FC0000
00FC0000
00FC0000
00FC0000
00FC0000
03FF0000
03FF0000
00000000
00000000
00000000
00000000
ENDCHAR
STARTCHAR U+0051
ENCODING 81
SWIDTH 500 0
DWIDTH 32 0
BBX 32 32 0 0
BITMAP
00000000
00000000
00000000
00000000
003FF000
003FF000
03FCFF00
03FCFF00
03F03F00
03F03F00
0FC00FC0
0FC00FC0
0FC00FC0
0FC00FC0
0FC00FC0
0FC00FC0
0FC00FC0
0FC00FC0
0FC0FFC0
0FC0FFC0
0FC3FFC0
0FC3FFC0
03FFFF00
03FFFF00
03FFFF00
03FFFF00
00003F00
00003F00
0003FFC0
0003FFC0
00000000
00000000
ENDCHAR
STARTCHAR U+0052
ENCODING 82
SWIDTH 500 0
DWIDTH 32 0
BBX 32 32 0 0
BITMAP
00000000
00000000
00000000
00000000
03FFFF00
03FFFF00
00FC0FC0
00FC0FC0
00FC0FC0
00FC0FC0
00FC0FC0
00FC0FC0
00FC0FC0
00FC0FC0
00FFFF00
00FFFF00
00FFFF00
00FFFF00
00FC3F00
00FC3F00
00FC3FC0
00FC3FC0
00FC0FC0
00FC0FC0
00FC0FC0
00FC0FC0
03FC0FC0
03FC0FC0
00000000
00000000
00000000
00000000
ENDCHAR
STARTCHAR U+0053
ENCODING 83
SWIDTH 500 0
DWIDTH 32 0
BBX 32 32 0 0
BITMAP
00000000
00000000
00000000
00000000
00FFFC00
00FFFC00
03F03F00
03F03F00
03F03F00
03F03F00
03F03F00
03F03F00
03F00000
03F00000
00FFC000
00FFC000
000FFC00
000FFC00
00003F00
00003F00
03F03F00
03F03F00
03F03F00
03F03F00
03F03F00
03F03F00
003FFC00
003FFC00
00000000
00000000
00000000
00000000
ENDCHAR
STARTCHAR U+0054
ENCODING 84
SWIDTH 500 0
DWIDTH 32 0
BBX 32 32 0 0
BITMAP
00000000
00000000
00000000
00000000
03FFFFF0
03FFFFF0
03C3F0F0
03C3F0F0
0303F030
0303F030
0003F000
0003F000
0003F000
0003F000
0003F000
0003F000
0003F000
0003F000
0003F000
0003F000
0003F000
0003F000
0003F000
0003F000
0003F000
0003F000
003FFF00
003FFF00
00000000
00000000
00000000
00000000
ENDCHAR
STARTCHAR U+0055
ENCODING 85
SWIDTH 500 0
DWIDTH 32 0
BBX 32 32 0 0
BITMAP
00000000
00000000
00000000
00000000
03F03F00
03F03F00
03F03F00
03F03F00
03F03F00
03F03F00
03F03F00
03F03F00
03F03F00
03F03F00
03F03F00
03F03F00
03F03F00
03F03F00
03F03F00
03F03F00
03F03F00
03F03F00
03F03F00
03F03F00
03F03F00
03F03F00
00FFFC00
00FFFC00
00000000
00000000
00000000
00000000
ENDCHAR
STARTCHAR U+0056
ENCODING 86
SWIDTH 500 0
DWIDTH 32 0
BBX 32 32 0 0
BITMAP
00000000
00000000
00000000
00000000
03F03F00
03F03F00
03F03F00
03F03F00
03F03F00
03F03F00
03F03F00
03F03F00
03F03F00
03F03F00
03F03F00
03F03F00
03F03F00
03F03F00
03F03F00
03F03F00
03F03F00
03F03F00
00FCFC00
00FCFC00
003FF000
003FF000
000FC000
000FC000
00000000
00000000
00000000
00000000
ENDCHAR
STARTCHAR U+0057
ENCODING 87
SWIDTH 500 0
DWIDTH 32 0
BBX 32 32 0 0
BITMAP
00000000
00000000
00000000
00000000
03F003F0
03F003F0
03F003F0
03F003F0
03F003F0
03F003F0
03F003F0
03F003F0
03F003F0
03F003F0
03F0C3F0
03F0C3F0
03F0C3F0
03F0C3F0
03F0C3F0
03F0C3F0
003F3F00
003F3F00
003F3F00
003F3F00
003F3F00
003F3F00
003F3F00
003F3F00
00000000
00000000
00000000
00000000
ENDCHAR
STARTCHAR U+0058
ENCODING 88
SWIDTH 500 0
DWIDTH 32 0
BBX 32 32 0 0
BITMAP
00000000
00000000
00000000
00000000
03F03F00
03F03F00
03F03F00
03F03F00
03F03F00
03F03F00
03FCFF00
03FCFF00
00FFFC00
00FFFC00
000FC000
000FC000
000FC000
000FC000
00FFFC00
00FFFC00
03FCFF00
03FCFF00
03F03F00
03F03F00
03F03F00
03F03F00
03F03F00
03F03F00
00000000
00000000
00000000
00000000
ENDCHAR
STARTCHAR U+0059
ENCODING 89
SWIDTH 500 0
DWIDTH 32 0
BBX 32 32 0 0
BITMAP
00000000
00000000
00000000
00000000
03F03F00
03F03F00
03F03F00
03F03F00
03F03F00
03F03F00
03F03F00
03F03F00
03F03F00
03F03F00
00FCFC00
00FCFC00
003FF000
003FF000
000FC000
000FC000
000FC000
000FC000
000FC000
000FC000
000FC000
000FC000
00FFFC00
00FFFC00
00000000
00000000
00000000
00000000
ENDCHAR
STARTCHAR U+005A
ENCODING 90
SWIDTH 500 0
DWIDTH 32 0
BBX 32 32 0 0
BITMAP
00000000
00000000
00000000
00000000
03FFFFC0
03FFFFC0
03F00FC0
03F00FC0
03C00FC0
03C00FC0
03003F00
03003F00
0000FC00
0000FC00
0003F000
0003F000
000FC000
000FC000
003F0000
003F0000
00FC00C0
00FC00C0
03F003C0
03F003C0
03F00FC0
03F00FC0
03FFFFC0
03FFFFC0
00000000
00000000
00000000
00000000
ENDCHAR
STARTCHAR U+005B
ENCODING 91
SWIDTH 500 0
DWIDTH 32 0
BBX 32 32 0 0
BITMAP
00000000
00000000
00000000
00000000
00FFFC00
00FFFC00
00FC0000
00FC0000
00FC0000
00FC0000
00FC0000
00FC0000
00FC0000
00FC0000
00FC0000
00FC0000
00FC0000
00FC0000
00FC0000
00FC0000
00FC0000
00FC0000
00FC0000
00FC0000
00FC0000
00FC0000
00FFFC00
00FFFC00
00000000
00000000
00000000
00000000
ENDCHAR
STARTCHAR U+005C
ENCODING 92
SWIDTH 500 0
DWIDTH 32 0
BBX 32 32 0 0
BITMAP
00000000
00000000
00000000
00000000
0F000000
0F000000
0FC00000
0FC00000
03F00000
03F00000
00FC0000
00FC0000
003F0000
003F0000
000FC000
000FC000
0003F000
0003F000
0000FC00
0000FC00
00003F00
00003F00
00000FC0
00000FC0
000003F0
000003F0
000000F0
000000F0
00000000
00000000
00000000
00000000
ENDCHAR
STARTCHAR U+005D
ENCODING 93
SWIDTH 500 0
DWIDTH 32 0
BBX 32 32 0 0
BITMAP
00000000
00000000
00000000
00000000
003FFF00
003FFF00
00003F00
00003F00
00003F00
00003F00
00003F00
00003F00
00003F00
00003F00
00003F00
00003F00
00003F00
00003F00
00003F00
00003F00
00003F00
00003F00
00003F00
00003F00
00003F00
00003F00
003FFF00
003FFF00
00000000
00000000
00000000
00000000
ENDCHAR
STARTCHAR U+005E
ENCODING 94
SWIDTH 500 0
DWIDTH 32 0
BBX 32 32 0 0
BITMAP
00000000
00000000
0003C000
0003C000
000FF000
000FF000
003FFC00
003FFC00
00FC3F00
00FC3F00
03F00FC0
03F00FC0
00000000
00000000
00000000
00000000
00000000
00000000
00000000
00000000
00000000
00000000
00000000
00000000
00000000
00000000
00000000
00000000
00000000
00000000
00000000
00000000
ENDCHAR
STARTCHAR U+005F
ENCODING 95
SWIDTH 500 0
DWIDTH 32 0
BBX 32 32 0 0
BITMAP
00000000
00000000
00000000
00000000
00000000
00000000
00000000
00000000
00000000
00000000
00000000
00000000
00000000
00000000
00000000
00000000
00000000
00000000
00000000
00000000
00000000
00000000
00000000
00000000
00000000
00000000
00000000
00000000
FFFFFFFF
FFFFFFFF
FFFFFFFF
FFFFFFFF
ENDCHAR
STARTCHAR U+0060
ENCODING 96
SWIDTH 500 0
DWIDTH 32 0
BBX 32 32 0 0
BITMAP
00000000
00000000
003F0000
003F0000
003F0000
003F0000
003F0000
003F0000
000FC000
000FC000
00000000
00000000
00000000
00000000
00000000
00000000
00000000
00000000
00000000
00000000
00000000
00000000
00000000
00000000
00000000
00000000
00000000
00000000
00000000
00000000
00000000
00000000
ENDCHAR
STARTCHAR U+0061
ENCODING 97
SWIDTH 500 0
DWIDTH 32 0
BBX 32 32 0 0
BITMAP
00000000
00000000
00000000
00000000
00000000
00000000
00000000
00000000
00000000
00000000
00000000
00000000
00FFFC00
00FFFC00
00003F00
00003F00
00003F00
00003F00
00FFFF00
00FFFF00
03F03F00
03F03F00
03F03F00
03F03F00
03F03F00
03F03F00
00FFC3C0
00FFC3C0
00000000
00000000
00000000
00000000
ENDCHAR
STARTCHAR U+0062
ENCODING 98
SWIDTH 500 0
DWIDTH 32 0
BBX 32 32 0 0
BITMAP
00000000
00000000
00000000
00000000
03FC0000
03FC0000
00FC0000
00FC0000
00FC0000
00FC0000
00FC0000
00FC0000
00FFFF00
00FFFF00
00FC0FC0
00FC0FC0
00FC0FC0
00FC0FC0
00FC0FC0
00FC0FC0
00FC0FC0
00FC0FC0
00FC0FC0
00FC0FC0
00FC0FC0
00FC0FC0
03C3FF00
03C3FF00
00000000
00000000
00000000
00000000
ENDCHAR
STARTCHAR U+0063
ENCODING 99
SWIDTH 500 0
DWIDTH 32 0
BBX 32 32 0 0
BITMAP
00000000
00000000
00000000
00000000
00000000
00000000
00000000
00000000
00000000
00000000
00000000
00000000
00FFFC00
00FFFC00
03F03F00
03F03F00
03F03F00
03F03F00
03F00000
03F00000
03F00000
03F00000
03F03F00
03F03F00
03F03F00
03F03F00
00FFFC00
00FFFC00
00000000
00000000
00000000
00000000
ENDCHAR
STARTCHAR U+0064
ENCODING 100
SWIDTH 500 0
DWIDTH 32 0
BBX 32 32 0 0
BITMAP
00000000
00000000
00000000
00000000
0000FFC0
0000FFC0
00003F00
00003F00
00003F00
00003F00
00003F00
00003F00
00FFFF00
00FFFF00
03F03F00
03F03F00
03F03F00
03F03F00
03F03F00
03F03F00
03F03F00
03F03F00
03F03F00
03F03F00
03F03F00
03F03F00
00FFC3C0
00FFC3C0
00000000
00000000
00000000
00000000
ENDCHAR
STARTCHAR U+0065
ENCODING 101
SWIDTH 500 0
DWIDTH 32 0
BBX 32 32 0 0
BITMAP
00000000
00000000
00000000
00000000
00000000
00000000
00000000
00000000
00000000
00000000
00000000
00000000
00FFFC00
00FFFC00
03F03F00
03F03F00
03F03F00
03F03F00
03FFFF00
03FFFF00
03F00000
03F00000
03F03F00
03F03F00
03F03F00
03F03F00
00FFFC00
00FFFC00
00000000
00000000
00000000
00000000
ENDCHAR
STARTCHAR U+0066
ENCODING 102
SWIDTH 500 0
DWIDTH 32 0
BBX 32 32 0 0
BITMAP
00000000
00000000
00000000
00000000
000FFC00
000FFC00
003F3F00
003F3F00
003F3F00
003F3F00
003F0000
003F0000
003F0000
003F0000
03FFFC00
03FFFC00
03FFFC00
03FFFC00
003F0000
003F0000
003F0000
003F0000
003F0000
003F0000
003F0000
003F0000
03FFF000
03FFF000
00000000
00000000
00000000
00000000
ENDCHAR
STARTCHAR U+0067
ENCODING 103
SWIDTH 500 0
DWIDTH 32 0
BBX 32 32 0 0
BITMAP
00000000
00000000
00000000
00000000
00000000
00000000
00000000
00000000
00000000
00000000
00000000
00000000
00FFC3C0
00FFC3C0
03F03F00
03F03F00
03F03F00
03F03F00
03F03F00
03F03F00
03F03F00
03F03F00
00FFFF00
00FFFF00
003FFF00
003FFF00
00003F00
00003F00
03F03F00
03F03F00
00FFFC00
00FFFC00
ENDCHAR
STARTCHAR U+0068
ENCODING 104
SWIDTH 500 0
DWIDTH 32 0
BBX 32 32 0 0
BITMAP
00000000
00000000
00000000
00000000
03FC0000
03FC0000
00FC0000
00FC0000
00FC0000
00FC0000
00FC0000
00FC0000
00FCFF00
00FCFF00
00FF0FC0
00FF0FC0
00FF0FC0
00FF0FC0
00FC0FC0
00FC0FC0
00FC0FC0
00FC0FC0
00FC0FC0
00FC0FC0
00FC0FC0
00FC0FC0
03FC0FC0
03FC0FC0
00000000
00000000
00000000
00000000
ENDCHAR
STARTCHAR U+0069
ENCODING 105
SWIDTH 500 0
DWIDTH 32 0
BBX 32 32 0 0
BITMAP
00000000
00000000
00000000
00000000
0003F000
0003F000
0003F000
0003F000
0003F000
0003F000
00000000
00000000
00FFF000
00FFF000
0003F000
0003F000
0003F000
0003F000
0003F000
0003F000
0003F000
0003F000
0003F000
0003F000
0003F000
0003F000
00FFFFC0
00FFFFC0
00000000
00000000
00000000
00000000
ENDCHAR
STARTCHAR U+006A
ENCODING 106
SWIDTH 500 0
DWIDTH 32 0
BBX 32 32 0 0
BITMAP
00000000
00000000
00000000
00000000
00003F00
00003F00
00003F00
00003F00
00003F00
00003F00
00000000
00000000
000FFF00
000FFF00
00003F00
00003F00
00003F00
00003F00
00003F00
00003F00
00003F00
00003F00
00003F00
00003F00
00003F00
00003F00
03F03F00
03F03F00
03F03F00
03F03F00
00FFFC00
00FFFC00
ENDCHAR
STARTCHAR U+006B
ENCODING 107
SWIDTH 500 0
DWIDTH 32 0
BBX 32 32 0 0
BITMAP
00000000
00000000
00000000
00000000
03FC0000
03FC0000
00FC0000
00FC0000
00FC0000
00FC0000
00FC0000
00FC0000
00FC0FC0
00FC0FC0
00FC3F00
00FC3F00
00FCFC00
00FCFC00
00FFF000
00FFF000
00FCFC00
00FCFC00
00FC3F00
00FC3F00
00FC0FC0
00FC0FC0
03FC0FC0
03FC0FC0
00000000
00000000
00000000
00000000
ENDCHAR
STARTCHAR U+006C
ENCODING 108
SWIDTH 500 0
DWIDTH 32 0
BBX 32 32 0 0
BITMAP
00000000
00000000
00000000
00000000
00FFF000
00FFF000
0003F000
0003F000
0003F000
0003F000
0003F000
0003F000
0003F000
0003F000
0003F000
0003F000
0003F000
0003F000
0003F000
0003F000
0003F000
0003F000
0003F000
0003F000
0003F000
0003F000
00FFFFC0
00FFFFC0
00000000
00000000
00000000
00000000
ENDCHAR
STARTCHAR U+006D
ENCODING 109
SWIDTH 500 0
DWIDTH 32 0
BBX 32 32 0 0
BITMAP
00000000
00000000
00000000
00000000
00000000
00000000
00000000
00000000
00000000
00000000
00000000
00000000
03FFFFC0
03FFFFC0
03F0C3F0
03F0C3F0
03F0C3F0
03F0C3F0
03F0C3F0
03F0C3F0
03F0C3F0
03F0C3F0
03F0C3F0
03F0C3F0
03F0C3F0
03F0C3F0
03F003F0
03F003F0
00000000
00000000
00000000
00000000
ENDCHAR
STARTCHAR U+006E
ENCODING 110
SWIDTH 500 0
DWIDTH 32 0
BBX 32 32 0 0
BITMAP
00000000
00000000
00000000
00000000
00000000
00000000
00000000
00000000
00000000
00000000
00000000
00000000
00FFFF00
00FFFF00
00FC0FC0
00FC0FC0
00FC0FC0
00FC0FC0
00FC0FC0
00FC0FC0
00FC0FC0
00FC0FC0
00FC0FC0
00FC0FC0
00FC0FC0
00FC0FC0
00FC0FC0
00FC0FC0
00000000
00000000
00000000
00000000
ENDCHAR
STARTCHAR U+006F
ENCODING 111
SWIDTH 500 0
DWIDTH 32 0
BBX 32 32 0 0
BITMAP
00000000
00000000
00000000
00000000
00000000
00000000
00000000
00000000
00000000
00000000
00000000
00000000
003FFF00
003FFF00
00FC0FC0
00FC0FC0
00FC0FC0
00FC0FC0
00FC0FC0
00FC0FC0
00FC0FC0
00FC0FC0
00FC0FC0
00FC0FC0
00FC0FC0
00FC0FC0
003FFF00
003FFF00
00000000
00000000
00000000
00000000
ENDCHAR
STARTCHAR U+0070
ENCODING 112
SWIDTH 500 0
DWIDTH 32 0
BBX 32 32 0 0
BITMAP
00000000
00000000
00000000
00000000
00000000
00000000
00000000
00000000
00000000
00000000
00000000
00000000
03C3FF00
03C3FF00
00FC0FC0
00FC0FC0
00FC0FC0
00FC0FC0
00FC0FC0
00FC0FC0
00FC0FC0
00FC0FC0
00FC0FC0
00FC0FC0
00FFFF00
00FFFF00
00FC0000
00FC0000
00FC0000
00FC0000
03FF0000
03FF0000
ENDCHAR
STARTCHAR U+0071
ENCODING 113
SWIDTH 500 0
DWIDTH 32 0
BBX 32 32 0 0
BITMAP
00000000
00000000
00000000
00000000
00000000
00000000
00000000
00000000
00000000
00000000
00000000
00000000
03FF0F00
03FF0F00
0FC0FC00
0FC0FC00
0FC0FC00
0FC0FC00
0FC0FC00
0FC0FC00
0FC0FC00
0FC0FC00
0FC0FC00
0FC0FC00
03FFFC00
03FFFC00
0000FC00
0000FC00
0000FC00
0000FC00
0003FF00
0003FF00
ENDCHAR
STARTCHAR U+0072
ENCODING 114
SWIDTH 500 0
DWIDTH 32 0
BBX 32 32 0 0
BITMAP
00000000
00000000
00000000
00000000
00000000
00000000
00000000
00000000
00000000
00000000
00000000
00000000
03FC3F00
03FC3F00
00FFFFC0
00FFFFC0
00FFFFC0
00FFFFC0
00FF0FC0
00FF0FC0
00FC0000
00FC0000
00FC0000
00FC0000
00FC0000
00FC0000
03FF0000
03FF0000
00000000
00000000
00000000
00000000
ENDCHAR
STARTCHAR U+0073
ENCODING 115
SWIDTH 500 0
DWIDTH 32 0
BBX 32 32 0 0
BITMAP
00000000
00000000
00000000
00000000
00000000
00000000
00000000
00000000
00000000
00000000
00000000
00000000
00FFFC00
00FFFC00
03F00F00
03F00F00
03F00F00
03F00F00
00FFC000
00FFC000
000FFC00
000FFC00
03C03F00
03C03F00
03C03F00
03C03F00
00FFFC00
00FFFC00
00000000
00000000
00000000
00000000
ENDCHAR
STARTCHAR U+0074
ENCODING 116
SWIDTH 500 0
DWIDTH 32 0
BBX 32 32 0 0
BITMAP
00000000
00000000
00000000
00000000
00000000
00000000
00030000
00030000
000F0000
000F0000
003F0000
003F0000
03FFFF00
03FFFF00
003F0000
003F0000
003F0000
003F0000
003F0000
003F0000
003F0000
003F0000
003F3F00
003F3F00
003F3F00
003F3F00
000FFC00
000FFC00
00000000
00000000
00000000
00000000
ENDCHAR
STARTCHAR U+0075
ENCODING 117
SWIDTH 500 0
DWIDTH 32 0
BBX 32 32 0 0
BITMAP
00000000
00000000
00000000
00000000
00000000
00000000
00000000
00000000
00000000
00000000
00000000
00000000
03F03F00
03F03F00
03F03F00
03F03F00
03F03F00
03F03F00
03F03F00
03F03F00
03F03F00
03F03F00
03F03F00
03F03F00
03F03F00
03F03F00
003FC3C0
003FC3C0
00000000
00000000
00000000
00000000
ENDCHAR
STARTCHAR U+0076
ENCODING 118
SWIDTH 500 0
DWIDTH 32 0
BBX 32 32 0 0
BITMAP
00000000
00000000
00000000
00000000
00000000
00000000
00000000
00000000
00000000
00000000
00000000
00000000
03F03F00
03F03F00
03F03F00
03F03F00
03F03F00
03F03F00
03F03F00
03F03F00
03F03F00
03F03F00
00FCFC00
00FCFC00
003FF000
003FF000
000FC000
000FC000
00000000
00000000
00000000
00000000
ENDCHAR
STARTCHAR U+0077
ENCODING 119
SWIDTH 500 0
DWIDTH 32 0
BBX 32 32 0 0
BITMAP
00000000
00000000
00000000
00000000
00000000
00000000
00000000
00000000
00000000
00000000
00000000
00000000
03F003F0
03F003F0
03F003F0
03F003F0
03F003F0
03F003F0
03F0C3F0
03F0C3F0
03F0C3F0
03F0C3F0
003F3F00
003F3F00
003F3F00
003F3F00
003F3F00
003F3F00
00000000
00000000
00000000
00000000
ENDCHAR
STARTCHAR U+0078
ENCODING 120
SWIDTH 500 0
DWIDTH 32 0
BBX 32 32 0 0
BITMAP
00000000
00000000
00000000
00000000
00000000
00000000
00000000
00000000
00000000
00000000
00000000
00000000
03F0FC00
03F0FC00
03F0FC00
03F0FC00
00FFF000
00FFF000
003FC000
003FC000
003FC000
003FC000
00FFF000
00FFF000
03F0FC00
03F0FC00
03F0FC00
03F0FC00
00000000
00000000
00000000
00000000
ENDCHAR
STARTCHAR U+0079
ENCODING 121
SWIDTH 500 0
DWIDTH 32 0
BBX 32 32 0 0
BITMAP
00000000
00000000
00000000
00000000
00000000
00000000
00000000
00000000
00000000
00000000
00000000
00000000
00FC0FC0
00FC0FC0
00FC0FC0
00FC0FC0
00FC0FC0
00FC0FC0
00FC0FC0
00FC0FC0
00FC0FC0
00FC0FC0
003FFF00
003FFF00
000FFC00
000FFC00
0000FC00
0000FC00
0003F000
0003F000
03FFC000
03FFC000
ENDCHAR
STARTCHAR U+007A
ENCODING 122
SWIDTH 500 0
DWIDTH 32 0
BBX 32 32 0 0
BITMAP
00000000
00000000
00000000
00000000
00000000
00000000
00000000
00000000
00000000
00000000
00000000
00000000
03FFFC00
03FFFC00
03C0FC00
03C0FC00
0303F000
0303F000
000FC000
000FC000
003F0000
003F0000
00FC0C00
00FC0C00
03F03C00
03F03C00
03FFFC00
03FFFC00
00000000
00000000
00000000
00000000
ENDCHAR
STARTCHAR U+007B
ENCODING 123
SWIDTH 500 0
DWIDTH 32 0
BBX 32 32 0 0
BITMAP
00000000
00000000
00000000
00000000
0003FF00
0003FF00
000FC000
000FC000
000FC000
000FC000
000FC000
000FC000
003F0000
003F0000
03F00000
03F00000
03F00000
03F00000
003F0000
003F0000
000FC000
000FC000
000FC000
000FC000
000FC000
000FC000
0003FF00
0003FF00
00000000
00000000
00000000
00000000
ENDCHAR
STARTCHAR U+007C
ENCODING 124
SWIDTH 500 0
DWIDTH 32 0
BBX 32 32 0 0
BITMAP
00000000
00000000
00000000
00000000
000FF000
000FF000
000FF000
000FF000
000FF000
000FF000
000FF000
000FF000
000FF000
000FF000
00000000
00000000
00000000
00000000
000FF000
000FF000
000FF000
000FF000
000FF000
000FF000
000FF000
000FF000
000FF000
000FF000
00000000
00000000
00000000
00000000
ENDCHAR
STARTCHAR U+007D
ENCODING 125
SWIDTH 500 0
DWIDTH 32 0
BBX 32 32 0 0
BITMAP
00000000
00000000
00000000
00000000
00FFC000
00FFC000
0003F000
0003F000
0003F000
0003F000
0003F000
0003F000
0000FC00
0000FC00
00000FC0
00000FC0
00000FC0
00000FC0
0000FC00
0000FC00
0003F000
0003F000
0003F000
0003F000
0003F000
0003F000
00FFC000
00FFC000
00000000
00000000
00000000
00000000
ENDCHAR
STARTCHAR U+007E
ENCODING 126
SWIDTH 500 0
DWIDTH 32 0
BBX 32 32 0 0
BITMAP
00000000
00000000
00000000
00000000
00FC00F0
00FC00F0
03FFC3F0
03FFC3F0
0FC3FFC0
0FC3FFC0
0F003F00
0F003F00
00000000
00000000
00000000
00000000
00000000
00000000
00000000
00000000
00000000
00000000
00000000
00000000
00000000
00000000
00000000
00000000
00000000
00000000
00000000
00000000
ENDCHAR
STARTCHAR U+2302
ENCODING 8962
SWIDTH 500 0
DWIDTH 32 0
BBX 32 32 0 0
BITMAP
00000000
00000000
00000000
00000000
00000000
00000000
0003C000
0003C000
000FF000
000FF000
003FFC00
003FFC00
00FC3F00
00FC3F00
03F00FC0
03F00FC0
03C003C0
03C003C0
03C003C0
03C003C0
03C003C0
03C003C0
03FFFFC0
03FFFFC0
03FFFFC0
03FFFFC0
00000000
00000000
00000000
00000000
00000000
00000000
ENDCHAR
STARTCHAR U+00C7
ENCODING 199
SWIDTH 500 0
DWIDTH 32 0
BBX 32 32 0 0
BITMAP
00000000
00000000
003FFF00
003FFF00
00FC0FC0
00FC0FC0
00FC0FC0
00FC0FC0
03F00000
03F00000
03F00000
03F00000
03F00000
03F00000
03F00000
03F00000
03F00000
03F00000
03F00000
03F00000
00FC0FC0
00FC0FC0
00FC0FC0
00FC0FC0
003FFF00
003FFF00
0003F000
0003F000
00FFF000
00FFF000
00FFF000
00FFF000
ENDCHAR
STARTCHAR U+00FC
ENCODING 252
SWIDTH 500 0
DWIDTH 32 0
BBX 32 32 0 0
BITMAP
00000000
00000000
03F03F00
03F03F00
03F03F00
03F03F00
03F03F00
03F03F00
00000000
00000000
00000000
00000000
03F03F00
03F03F00
03F03F00
03F03F00
03F03F00
03F03F00
03F03F00
03F03F00
03F03F00
03F03F00
03F03F00
03F03F00
03F03F00
03F03F00
003FC3C0
003FC3C0
00000000
00000000
00000000
00000000
ENDCHAR
STARTCHAR U+00E9
ENCODING 233
SWIDTH 500 0
DWIDTH 32 0
BBX 32 32 0 0
BITMAP
00000000
00000000
0003F000
0003F000
000FC000
000FC000
003F0000
003F0000
00000000
00000000
00000000
00000000
00FFFC00
00FFFC00
03F03F00
03F03F00
03F03F00
03F03F00
03FFFF00
03FFFF00
03F00000
03F00000
03F03F00
03F03F00
03F03F00
03F03F00
00FFFC00
00FFFC00
00000000
00000000
00000000
00000000
ENDCHAR
STARTCHAR U+00E2
ENCODING 226
SWIDTH 500 0
DWIDTH 32 0
BBX 32 32 0 0
BITMAP
00000000
00000000
000FC000
000FC000
003CF000
003CF000
00F03C00
00F03C00
00000000
00000000
00000000
00000000
00FFFC00
00FFFC00
00003F00
00003F00
00003F00
00003F00
00FFFF00
00FFFF00
03F03F00
03F03F00
03F03F00
03F03F00
03F03F00
03F03F00
00FFC3C0
00FFC3C0
00000000
00000000
00000000
00000000
ENDCHAR
STARTCHAR U+00E4
ENCODING 228
SWIDTH 500 0
DWIDTH 32 0
BBX 32 32 0 0
BITMAP
00000000
00000000
03F03F00
03F03F00
03F03F00
03F03F00
03F03F00
03F03F00
00000000
00000000
00000000
00000000
00FFFC00
00FFFC00
00003F00
00003F00
00003F00
00003F00
00FFFF00
00FFFF00
03F03F00
03F03F00
03F03F00
03F03F00
03F03F00
03F03F00
00FFC3C0
00FFC3C0
00000000
00000000
00000000
00000000
ENDCHAR
STARTCHAR U+00E0
ENCODING 224
SWIDTH 500 0
DWIDTH 32 0
BBX 32 32 0 0
BITMAP
00000000
00000000
003F0000
003F0000
000FC000
000FC000
0003F000
0003F000
00000000
00000000
00000000
00000000
00FFFC00
00FFFC00
00003F00
00003F00
00003F00
00003F00
00FFFF00
00FFFF00
03F03F00
03F03F00
03F03F00
03F03F00
03F03F00
03F03F00
00FFC3C0
00FFC3C0
00000000
00000000
00000000
00000000
ENDCHAR
STARTCHAR U+00E5
ENCODING 229
SWIDTH 500 0
DWIDTH 32 0
BBX 32 32 0 0
BITMAP
0003C000
0003C000
000C3000
000C3000
000C3000
000C3000
0003C000
0003C000
00000000
00000000
00000000
00000000
00FFFC00
00FFFC00
00003F00
00003F00
00003F00
00003F00
00FFFF00
00FFFF00
03F03F00
03F03F00
03F03F00
03F03F00
03F03F00
03F03F00
00FFC3C0
00FFC3C0
00000000
00000000
00000000
00000000
ENDCHAR
STARTCHAR U+00E7
ENCODING 231
SWIDTH 500 0
DWIDTH 32 0
BBX 32 32 0 0
BITMAP
00000000
00000000
00000000
00000000
00000000
00000000
00000000
00000000
00000000
00000000
00000000
00000000
00FFFC00
00FFFC00
03F03F00
03F03F00
03F03F00
03F03F00
03F00000
03F00000
03F00000
03F00000
03F03F00
03F03F00
03F03F00
03F03F00
00FFFC00
00FFFC00
000FC000
000FC000
03FFC000
03FFC000
ENDCHAR
STARTCHAR U+00EA
ENCODING 234
SWIDTH 500 0
DWIDTH 32 0
BBX 32 32 0 0
BITMAP
00000000
00000000
000FC000
000FC000
003CF000
003CF000
00F03C00
00F03C00
00000000
00000000
00000000
00000000
00FFFC00
00FFFC00
03F03F00
03F03F00
03F03F00
03F03F00
03FFFF00
03FFFF00
03F00000
03F00000
03F03F00
03F03F00
03F03F00
03F03F00
00FFFC00
00FFFC00
00000000
00000000
00000000
00000000
ENDCHAR
STARTCHAR U+00EB
ENCODING 235
SWIDTH 500 0
DWIDTH 32 0
BBX 32 32 0 0
BITMAP
00000000
00000000
03F03F00
03F03F00
03F03F00
03F03F00
03F03F00
03F03F00
00000000
00000000
00000000
00000000
00FFFC00
00FFFC00
03F03F00
03F03F00
03F03F00
03F03F00
03FFFF00
03FFFF00
03F00000
03F00000
03F03F00
03F03F00
03F03F00
03F03F00
00FFFC00
00FFFC00
00000000
00000000
00000000
00000000
ENDCHAR
STARTCHAR U+00E8
ENCODING 232
SWIDTH 500 0
DWIDTH 32 0
BBX 32 32 0 0
BITMAP
00000000
00000000
003F0000
003F0000
000FC000
000FC000
0003F000
0003F000
00000000
00000000
00000000
00000000
00FFFC00
00FFFC00
03F03F00
03F03F00
03F03F00
03F03F00
03FFFF00
03FFFF00
03F00000
03F00000
03F03F00
03F03F00
03F03F00
03F03F00
00FFFC00
00FFFC00
00000000
00000000
00000000
00000000
ENDCHAR
STARTCHAR U+00EF
ENCODING 239
SWIDTH 500 0
DWIDTH 32 0
BBX 32 32 0 0
BITMAP
00000000
00000000
03F03F00
03F03F00
03F03F00
03F03F00
03F03F00
03F03F00
00000000
00000000
00000000
00000000
00FFF000
00FFF000
0003F000
0003F000
0003F000
0003F000
0003F000
0003F000
0003F000
0003F000
0003F000
0003F000
0003F000
0003F000
00FFFFC0
00FFFFC0
00000000
00000000
00000000
00000000
ENDCHAR
STARTCHAR U+00EE
ENCODING 238
SWIDTH 500 0
DWIDTH 32 0
BBX 32 32 0 0
BITMAP
00000000
00000000
000FC000
000FC000
003CF000
003CF000
00F03C00
00F03C00
00000000
00000000
00000000
00000000
00FFF000
00FFF000
0003F000
0003F000
0003F000
0003F000
0003F000
0003F000
0003F000
0003F000
0003F000
0003F000
0003F000
0003F000
00FFFFC0
00FFFFC0
00000000
00000000
00000000
00000000
ENDCHAR
STARTCHAR U+00EC
ENCODING 236
SWIDTH 500 0
DWIDTH 32 0
BBX 32 32 0 0
BITMAP
00000000
00000000
003F0000
003F0000
000FC000
000FC000
0003F000
0003F000
00000000
00000000
00000000
00000000
00FFF000
00FFF000
0003F000
0003F000
0003F000
0003F000
0003F000
0003F000
0003F000
0003F000
0003F000
0003F000
0003F000
0003F000
00FFFFC0
00FFFFC0
00000000
00000000
00000000
00000000
ENDCHAR
STARTCHAR U+00C4
ENCODING 196
SWIDTH 500 0
DWIDTH 32 0
BBX 32 32 0 0
BITMAP
00000000
00000000
00FC3F00
00FC3F00
00FC3F00
00FC3F00
00000000
00000000
000FF000
000FF000
003FFC00
003FFC00
00FC3F00
00FC3F00
03F00FC0
03F00FC0
03F00FC0
03F00FC0
03F00FC0
03F00FC0
03FFFFC0
03FFFFC0
03F00FC0
03F00FC0
03F00FC0
03F00FC0
03F00FC0
03F00FC0
00000000
00000000
00000000
00000000
ENDCHAR
STARTCHAR U+00C5
ENCODING 197
SWIDTH 500 0
DWIDTH 32 0
BBX 32 32 0 0
BITMAP
0003C000
0003C000
000C3000
000C3000
0003C000
0003C000
00000000
00000000
000FF000
000FF000
003FFC00
003FFC00
00FC3F00
00FC3F00
03F00FC0
03F00FC0
03F00FC0
03F00FC0
03F00FC0
03F00FC0
03FFFFC0
03FFFFC0
03F00FC0
03F00FC0
03F00FC0
03F00FC0
03F00FC0
03F00FC0
00000000
00000000
00000000
00000000
ENDCHAR
STARTCHAR U+00C9
ENCODING 201
SWIDTH 500 0
DWIDTH 32 0
BBX 32 32 0 0
BITMAP
00000000
00000000
0003F000
0003F000
003F0000
003F0000
00000000
00000000
03FFFF00
03FFFF00
03F00F00
03F00F00
03F00300
03F00300
03F03000
03F03000
03FFF000
03FFF000
03FFF000
03FFF000
03F03000
03F03000
03F00300
03F00300
03F00F00
03F00F00
03FFFF00
03FFFF00
00000000
00000000
00000000
00000000
ENDCHAR
STARTCHAR U+00E6
ENCODING 230
SWIDTH 500 0
DWIDTH 32 0
BBX 32 32 0 0
BITMAP
00000000
00000000
00000000
00000000
00000000
00000000
00000000
00000000
00000000
00000000
00000000
00000000
00FFFF00
00FFFF00
0003C3C0
0003C3C0
0003C3C0
0003C3C0
00FFFFC0
00FFFFC0
03C3C000
03C3C000
03C3C3C0
03C3C3C0
03C3C3C0
03C3C3C0
00FCFF00
00FCFF00
00000000
00000000
00000000
00000000
ENDCHAR
STARTCHAR U+00C6
ENCODING 198
SWIDTH 500 0
DWIDTH 32 0
BBX 32 32 0 0
BITMAP
00000000
00000000
00000000
00000000
003FFFC0
003FFFC0
00FFFFC0
00FFFFC0
03F3C000
03F3C000
03C3C000
03C3C000
03C3C000
03C3C000
03FFFFC0
03FFFFC0
03FFFFC0
03FFFFC0
03C3C000
03C3C000
03C3C000
03C3C000
03C3C000
03C3C000
03C3FFC0
03C3FFC0
03C3FFC0
03C3FFC0
00000000
00000000
00000000
00000000
ENDCHAR
STARTCHAR U+00F4
ENCODING 244
SWIDTH 500 0
DWIDTH 32 0
BBX 32 32 0 0
BITMAP
00000000
00000000
000FC000
000FC000
003CF000
003CF000
00F03C00
00F03C00
00000000
00000000
00000000
00000000
00FFFC00
00FFFC00
03F03F00
03F03F00
03F03F00
03F03F00
03F03F00
03F03F00
03F03F00
03F03F00
03F03F00
03F03F00
03F03F00
03F03F00
00FFFC00
00FFFC00
00000000
00000000
00000000
00000000
ENDCHAR
STARTCHAR U+00F6
ENCODING 246
SWIDTH 500 0
DWIDTH 32 0
BBX 32 32 0 0
BITMAP
00000000
00000000
03F03F00
03F03F00
03F03F00
03F03F00
03F03F00
03F03F00
00000000
00000000
00000000
00000000
00FFFC00
00FFFC00
03F03F00
03F03F00
03F03F00
03F03F00
03F03F00
03F03F00
03F03F00
03F03F00
03F03F00
03F03F00
03F03F00
03F03F00
00FFFC00
00FFFC00
00000000
00000000
00000000
00000000
ENDCHAR
STARTCHAR U+00F2
ENCODING 242
SWIDTH 500 0
DWIDTH 32 0
BBX 32 32 0 0
BITMAP
00000000
00000000
003F0000
003F0000
000FC000
000FC000
0003F000
0003F000
00000000
00000000
00000000
00000000
00FFFC00
00FFFC00
03F03F00
03F03F00
03F03F00
03F03F00
03F03F00
03F03F00
03F03F00
03F03F00
03F03F00
03F03F00
03F03F00
03F03F00
00FFFC00
00FFFC00
00000000
00000000
00000000
00000000
ENDCHAR
STARTCHAR U+00FB
ENCODING 251
SWIDTH 500 0
DWIDTH 32 0
BBX 32 32 0 0
BITMAP
00000000
00000000
000FC000
000FC000
003CF000
003CF000
00F03C00
00F03C00
00000000
00000000
00000000
00000000
03F03F00
03F03F00
03F03F00
03F03F00
03F03F00
03F03F00
03F03F00
03F03F00
03F03F00
03F03F00
03F03F00
03F03F00
03F03F00
03F03F00
003FC3C0
003FC3C0
00000000
00000000
00000000
00000000
ENDCHAR
STARTCHAR U+00F9
ENCODING 249
SWIDTH 500 0
DWIDTH 32 0
BBX 32 32 0 0
BITMAP
00000000
00000000
003F0000
003F0000
000FC000
000FC000
0003F000
0003F000
00000000
00000000
00000000
00000000
03F03F00
03F03F00
03F03F00
03F03F00
03F03F00
03F03F00
03F03F00
03F03F00
03F03F00
03F03F00
03F03F00
03F03F00
03F03F00
03F03F00
003FC3C0
003FC3C0
00000000
00000000
00000000
00000000
ENDCHAR
STARTCHAR U+00FF
ENCODING 255
SWIDTH 500 0
DWIDTH 32 0
BBX 32 32 0 0
BITMAP
00000000
00000000
00FC0FC0
00FC0FC0
00FC0FC0
00FC0FC0
00FC0FC0
00FC0FC0
00000000
00000000
00000000
00000000
00FC0FC0
00FC0FC0
00FC0FC0
00FC0FC0
00FC0FC0
00FC0FC0
00FC0FC0
00FC0FC0
00FC0FC0
00FC0FC0
003FFF00
003FFF00
000FFC00
000FFC00
0000FC00
0000FC00
0003F000
0003F000
03FFC000
03FFC000
ENDCHAR
STARTCHAR U+00D6
ENCODING 214
SWIDTH 500 0
DWIDTH 32 0
BBX 32 32 0 0
BITMAP
00000000
00000000
00FC3F00
00FC3F00
00FC3F00
00FC3F00
00000000
00000000
003FFC00
003FFC00
00FC3F00
00FC3F00
03F00FC0
03F00FC0
03F00FC0
03F00FC0
03F00FC0
03F00FC0
03F00FC0
03F00FC0
03F00FC0
03F00FC0
03F00FC0
03F00FC0
00FC3F00
00FC3F00
003FFC00
003FFC00
00000000
00000000
00000000
00000000
ENDCHAR
STARTCHAR U+00DC
ENCODING 220
SWIDTH 500 0
DWIDTH 32 0
BBX 32 32 0 0
BITMAP
00000000
00000000
03F03F00
03F03F00
03F03F00
03F03F00
00000000
00000000
03F03F00
03F03F00
03F03F00
03F03F00
03F03F00
03F03F00
03F03F00
03F03F00
03F03F00
03F03F00
03F03F00
03F03F00
03F03F00
03F03F00
03F03F00
03F03F00
03F03F00
03F03F00
00FFFC00
00FFFC00
00000000
00000000
00000000
00000000
ENDCHAR
STARTCHAR U+00A2
ENCODING 162
SWIDTH 500 0
DWIDTH 32 0
BBX 32 32 0 0
BITMAP
00000000
00000000
000FC000
000FC000
000FC000
000FC000
000FC000
000FC000
003FFC00
003FFC00
00F03F00
00F03F00
03F03F00
03F03F00
03F00000
03F00000
03F00000
03F00000
03F03F00
03F03F00
00F03F00
00F03F00
003FFC00
003FFC00
000FC000
000FC000
000FC000
000FC000
000FC000
000FC000
00000000
00000000
ENDCHAR
STARTCHAR U+00A3
ENCODING 163
SWIDTH 500 0
DWIDTH 32 0
BBX 32 32 0 0
BITMAP
00000000
00000000
0003FC00
0003FC00
000FFF00
000FFF00
003F03C0
003F03C0
003F0000
003F0000
003F0000
003F0000
003F0000
003F0000
003F0000
003F0000
03FFFC00
03FFFC00
03FFFC00
03FFFC00
003F0000
003F0000
003F0000
003F0000
00FC00C0
00FC00C0
00FC03C0
00FC03C0
00FFFFC0
00FFFFC0
00000000
00000000
ENDCHAR
STARTCHAR U+00A5
ENCODING 165
SWIDTH 500 0
DWIDTH 32 0
BBX 32 32 0 0
BITMAP
00000000
00000000
00FC3F00
00FC3F00
00FC3F00
00FC3F00
00FC3F00
00FC3F00
00FC3F00
00FC3F00
00FC3F00
00FC3F00
000FF000
000FF000
0003C000
0003C000
00FFFF00
00FFFF00
0003C000
0003C000
00FFFF00
00FFFF00
0003C000
0003C000
0003C000
0003C000
0003C000
0003C000
0003C000
0003C000
00000000
00000000
ENDCHAR
STARTCHAR U+20A7
ENCODING 8359
SWIDTH 500 0
DWIDTH 32 0
BBX 32 32 0 0
BITMAP
00000000
00000000
0FFF0000
0FFF0000
0F03C000
0F03C000
0F03C000
0F03C000
0F03C000
0F03C000
0F03C000
0F03C000
0FFF0000
0FFF0000
0F00F000
0F00F000
0F00F000
0F00F000
0F03FFC0
0F03FFC0
0F00FC00
0F00FC00
0F00FC30
0F00FC30
0F00FC30
0F00FC30
0F003FC0
0F003FC0
00000000
00000000
00000000
00000000
ENDCHAR
STARTCHAR U+0192
ENCODING 402
SWIDTH 500 0
DWIDTH 32 0
BBX 32 32 0 0
BITMAP
00000000
00000000
0000FFC0
0000FFC0
0003F0FC
0003F0FC
0003F0FC
0003F0FC
0003F000
0003F000
0003F000
0003F000
00FFFFC0
00FFFFC0
0003F000
0003F000
0003F000
0003F000
0003F000
0003F000
0003F000
0003F000
0FC3F000
0FC3F000
0FC3F000
0FC3F000
00FFC000
00FFC000
00000000
00000000
00000000
00000000
ENDCHAR
STARTCHAR U+00E1
ENCODING 225
SWIDTH 500 0
DWIDTH 32 0
BBX 32 32 0 0
BITMAP
00000000
00000000
0003F000
0003F000
000FC000
000FC000
003F0000
003F0000
00000000
00000000
00000000
00000000
003FFC00
003FFC00
00003F00
00003F00
00003F00
00003F00
00FFFF00
00FFFF00
03F03F00
03F03F00
03F03F00
03F03F00
03F03F00
03F03F00
00FFC3C0
00FFC3C0
00000000
00000000
00000000
00000000
ENDCHAR
STARTCHAR U+00ED
ENCODING 237
SWIDTH 500 0
DWIDTH 32 0
BBX 32 32 0 0
BITMAP
00000000
00000000
0003F000
0003F000
000FC000
000FC000
003F0000
003F0000
00000000
00000000
00000000
00000000
00FFF000
00FFF000
0003F000
0003F000
0003F000
0003F000
0003F000
0003F000
0003F000
0003F000
0003F000
0003F000
0003F000
0003F000
00FFFFC0
00FFFFC0
00000000
00000000
00000000
00000000
ENDCHAR
STARTCHAR U+00F3
ENCODING 243
SWIDTH 500 0
DWIDTH 32 0
BBX 32 32 0 0
BITMAP
00000000
00000000
0003F000
0003F000
000FC000
000FC000
003F0000
003F0000
00000000
00000000
00000000
00000000
00FFFC00
00FFFC00
03F03F00
03F03F00
03F03F00
03F03F00
03F03F00
03F03F00
03F03F00
03F03F00
03F03F00
03F03F00
03F03F00
03F03F00
00FFFC00
00FFFC00
00000000
00000000
00000000
00000000
ENDCHAR
STARTCHAR U+00FA
ENCODING 250
SWIDTH 500 0
DWIDTH 32 0
BBX 32 32 0 0
BITMAP
00000000
00000000
0003F000
0003F000
000FC000
000FC000
003F0000
003F0000
00000000
00000000
00000000
00000000
03F03F00
03F03F00
03F03F00
03F03F00
03F03F00
03F03F00
03F03F00
03F03F00
03F03F00
03F03F00
03F03F00
03F03F00
03F03F00
03F03F00
003FC3C0
003FC3C0
00000000
00000000
00000000
00000000
ENDCHAR
STARTCHAR U+00F1
ENCODING 241
SWIDTH 500 0
DWIDTH 32 0
BBX 32 32 0 0
BITMAP
00000000
00000000
00FC03C0
00FC03C0
03FFCF00
03FFCF00
03C0FC00
03C0FC00
00000000
00000000
00000000
00000000
03FFFC00
03FFFC00
03F03F00
03F03F00
03F03F00
03F03F00
03F03F00
03F03F00
03F03F00
03F03F00
03F03F00
03F03F00
03F03F00
03F03F00
03F03F00
03F03F00
00000000
00000000
00000000
00000000
ENDCHAR
STARTCHAR U+00D1
ENCODING 209
SWIDTH 500 0
DWIDTH 32 0
BBX 32 32 0 0
BITMAP
00000000
00000000
003FC3F0
003FC3F0
03F0FF00
03F0FF00
00000000
00000000
03F003F0
03F003F0
03FC03F0
03FC03F0
03FF03F0
03FF03F0
03FFC3F0
03FFC3F0
03F3F3F0
03F3F3F0
03F0FFF0
03F0FFF0
03F03FF0
03F03FF0
03F00FF0
03F00FF0
03F003F0
03F003F0
03F003F0
03F003F0
00000000
00000000
00000000
00000000
ENDCHAR
STARTCHAR U+00AA
ENCODING 170
SWIDTH 500 0
DWIDTH 32 0
BBX 32 32 0 0
BITMAP
00000000
00000000
00000000
00000000
003FF000
003FF000
00003C00
00003C00
000FFC00
000FFC00
00F03C00
00F03C00
00F03C00
00F03C00
000FCF00
000FCF00
00000000
00000000
03FFFFC0
03FFFFC0
00000000
00000000
00000000
00000000
00000000
00000000
00000000
00000000
00000000
00000000
00000000
00000000
ENDCHAR
STARTCHAR U+00BA
ENCODING 186
SWIDTH 500 0
DWIDTH 32 0
BBX 32 32 0 0
BITMAP
00000000
00000000
00000000
00000000
000FF000
000FF000
00FC3F00
00FC3F00
00F00F00
00F00F00
00F00F00
00F00F00
00FC3F00
00FC3F00
000FF000
000FF000
00000000
00000000
03FFFFC0
03FFFFC0
00000000
00000000
00000000
00000000
00000000
00000000
00000000
00000000
00000000
00000000
00000000
00000000
ENDCHAR
STARTCHAR U+00BF
ENCODING 191
SWIDTH 500 0
DWIDTH 32 0
BBX 32 32 0 0
BITMAP
00000000
00000000
000FC000
000FC000
000FC000
000FC000
000FC000
000FC000
00000000
00000000
00000000
00000000
000FC000
000FC000
000FC000
000FC000
003F0000
003F0000
00FC0000
00FC0000
03F003C0
03F003C0
03FC3FC0
03FC3FC0
00FFFF00
00FFFF00
000FF000
000FF000
00000000
00000000
00000000
00000000
ENDCHAR
STARTCHAR U+2310
ENCODING 8976
SWIDTH 500 0
DWIDTH 32 0
BBX 32 32 0 0
BITMAP
00000000
00000000
00000000
00000000
00000000
00000000
00000000
00000000
00000000
00000000
00000000
00000000
0FFFFFF0
0FFFFFF0
0F000000
0F000000
0F000000
0F000000
0F000000
0F000000
0F000000
0F000000
0F000000
0F000000
00000000
00000000
00000000
00000000
00000000
00000000
00000000
00000000
ENDCHAR
STARTCHAR U+00AC
ENCODING 172
SWIDTH 500 0
DWIDTH 32 0
BBX 32 32 0 0
BITMAP
00000000
00000000
00000000
00000000
00000000
00000000
00000000
00000000
00000000
00000000
00000000
00000000
0FFFFFF0
0FFFFFF0
000000F0
000000F0
000000F0
000000F0
000000F0
000000F0
000000F0
000000F0
000000F0
000000F0
00000000
00000000
00000000
00000000
00000000
00000000
00000000
00000000
ENDCHAR
STARTCHAR U+00BD
ENCODING 189
SWIDTH 500 0
DWIDTH 32 0
BBX 32 32 0 0
BITMAP
00000000
00000000
00000000
00000000
03C003F0
03C003F0
0FC00FC0
0FC00FC0
0FC03F00
0FC03F00
03C0FC00
03C0FC00
03C3F000
03C3F000
03CFCFC0
03CFCFC0
003F3CF0
003F3CF0
00FC00F0
00FC00F0
03F003C0
03F003C0
0FC00F00
0FC00F00
0F003C00
0F003C00
0C003FF0
0C003FF0
00000000
00000000
00000000
00000000
ENDCHAR
STARTCHAR U+00BC
ENCODING 188
SWIDTH 500 0
DWIDTH 32 0
BBX 32 32 0 0
BITMAP
00000000
00000000
00000000
00000000
03C003F0
03C003F0
0FC00FC0
0FC00FC0
0FC03F00
0FC03F00
03C0FC00
03C0FC00
03C3F0F0
03C3F0F0
03CFC3F0
03CFC3F0
003F0FF0
003F0FF0
00FC3CF0
00FC3CF0
03F0F0F0
03F0F0F0
0FC0FFF0
0FC0FFF0
0F0000F0
0F0000F0
0C0000F0
0C0000F0
00000000
00000000
00000000
00000000
ENDCHAR
STARTCHAR U+00A1
ENCODING 161
SWIDTH 500 0
DWIDTH 32 0
BBX 32 32 0 0
BITMAP
00000000
00000000
00000000
00000000
000FC000
000FC000
000FC000
000FC000
000FC000
000FC000
00000000
00000000
00000000
00000000
000FC000
000FC000
000FC000
000FC000
003FF000
003FF000
003FF000
003FF000
003FF000
003FF000
003FF000
003FF000
003FF000
003FF000
000FC000
000FC000
00000000
00000000
ENDCHAR
STARTCHAR U+00AB
ENCODING 171
SWIDTH 500 0
DWIDTH 32 0
BBX 32 32 0 0
BITMAP
00000000
00000000
00000000
00000000
00000000
00000000
00000000
00000000
003F03F0
003F03F0
00FC0FC0
00FC0FC0
03F03F00
03F03F00
0FC0FC00
0FC0FC00
0FC0FC00
0FC0FC00
03F03F00
03F03F00
00FC0FC0
00FC0FC0
003F03F0
003F03F0
00000000
00000000
00000000
00000000
00000000
00000000
00000000
00000000
ENDCHAR
STARTCHAR U+00BB
ENCODING 187
SWIDTH 500 0
DWIDTH 32 0
BBX 32 32 0 0
BITMAP
00000000
00000000
00000000
00000000
00000000
00000000
00000000
00000000
0FC0FC00
0FC0FC00
03F03F00
03F03F00
00FC0FC0
00FC0FC0
003F03F0
003F03F0
003F03F0
003F03F0
00FC0FC0
00FC0FC0
03F03F00
03F03F00
0FC0FC00
0FC0FC00
00000000
00000000
00000000
00000000
00000000
00000000
00000000
00000000
ENDCHAR
STARTCHAR U+2591
ENCODING 9617
SWIDTH 500 0
DWIDTH 32 0
BBX 32 32 0 0
BITMAP
03030303
03030303
30303030
30303030
03030303
03030303
30303030
30303030
03030303
03030303
30303030
30303030
03030303
03030303
30303030
30303030
03030303
03030303
30303030
30303030
03030303
03030303
30303030
30303030
03030303
03030303
30303030
30303030
03030303
03030303
30303030
30303030
ENDCHAR
STARTCHAR U+2592
ENCODING 9618
SWIDTH 500 0
DWIDTH 32 0
BBX 32 32 0 0
BITMAP
33333333
33333333
CCCCCCCC
CCCCCCCC
33333333
33333333
CCCCCCCC
CCCCCCCC
33333333
33333333
CCCCCCCC
CCCCCCCC
33333333
33333333
CCCCCCCC
CCCCCCCC
33333333
33333333
CCCCCCCC
CCCCCCCC
33333333
33333333
CCCCCCCC
CCCCCCCC
33333333
33333333
CCCCCCCC
CCCCCCCC
33333333
33333333
CCCCCCCC
CCCCCCCC
ENDCHAR
STARTCHAR U+2593
ENCODING 9619
SWIDTH 500 0
DWIDTH 32 0
BBX 32 32 0 0
BITMAP
F3F3F3F3
F3F3F3F3
3F3F3F3F
3F3F3F3F
F3F3F3F3
F3F3F3F3
3F3F3F3F
3F3F3F3F
F3F3F3F3
F3F3F3F3
3F3F3F3F
3F3F3F3F
F3F3F3F3
F3F3F3F3
3F3F3F3F
3F3F3F3F
F3F3F3F3
F3F3F3F3
3F3F3F3F
3F3F3F3F
F3F3F3F3
F3F3F3F3
3F3F3F3F
3F3F3F3F
F3F3F3F3
F3F3F3F3
3F3F3F3F
3F3F3F3F
F3F3F3F3
F3F3F3F3
3F3F3F3F
3F3F3F3F
ENDCHAR
STARTCHAR U+2502
ENCODING 9474
SWIDTH 500 0
DWIDTH 32 0
BBX 32 32 0 0
BITMAP
0003C000
0003C000
0003C000
0003C000
0003C000
0003C000
0003C000
0003C000
0003C000
0003C000
0003C000
0003C000
0003C000
0003C000
0003C000
0003C000
0003C000
0003C000
0003C000
0003C000
0003C000
0003C000
0003C000
0003C000
0003C000
0003C000
0003C000
0003C000
0003C000
0003C000
0003C000
0003C000
ENDCHAR
STARTCHAR U+2524
ENCODING 9508
SWIDTH 500 0
DWIDTH 32 0
BBX 32 32 0 0
BITMAP
0003C000
0003C000
0003C000
0003C000
0003C000
0003C000
0003C000
0003C000
0003C000
0003C000
0003C000
0003C000
0003C000
0003C000
FFFFC000
FFFFC000
FFFFC000
FFFFC000
0003C000
0003C000
0003C000
0003C000
0003C000
0003C000
0003C000
0003C000
0003C000
0003C000
0003C000
0003C000
0003C000
0003C000
ENDCHAR
STARTCHAR U+2561
ENCODING 9569
SWIDTH 500 0
DWIDTH 32 0
BBX 32 32 0 0
BITMAP
0003C000
0003C000
0003C000
0003C000
0003C000
0003C000
0003C000
0003C000
0003C000
0003C000
FFFFC000
FFFFC000
FFFFC000
FFFFC000
0003C000
0003C000
0003C000
0003C000
FFFFC000
FFFFC000
FFFFC000
FFFFC000
0003C000
0003C000
0003C000
0003C000
0003C000
0003C000
0003C000
0003C000
0003C000
0003C000
ENDCHAR
STARTCHAR U+2562
ENCODING 9570
SWIDTH 500 0
DWIDTH 32 0
BBX 32 32 0 0
BITMAP
003C3C00
003C3C00
003C3C00
003C3C00
003C3C00
003C3C00
003C3C00
003C3C00
003C3C00
003C3C00
003C3C00
003C3C00
003C3C00
003C3C00
FFFC3C00
FFFC3C00
FFFC3C00
FFFC3C00
003C3C00
003C3C00
003C3C00
003C3C00
003C3C00
003C3C00
003C3C00
003C3C00
003C3C00
003C3C00
003C3C00
003C3C00
003C3C00
003C3C00
ENDCHAR
STARTCHAR U+2556
ENCODING 9558
SWIDTH 500 0
DWIDTH 32 0
BBX 32 32 0 0
BITMAP
00000000
00000000
00000000
00000000
00000000
00000000
00000000
00000000
00000000
00000000
00000000
00000000
00000000
00000000
FFFFFC00
FFFFFC00
FFFFFC00
FFFFFC00
003C3C00
003C3C00
003C3C00
003C3C00
003C3C00
003C3C00
003C3C00
003C3C00
003C3C00
003C3C00
003C3C00
003C3C00
003C3C00
003C3C00
ENDCHAR
STARTCHAR U+2555
ENCODING 9557
SWIDTH 500 0
DWIDTH 32 0
BBX 32 32 0 0
BITMAP
00000000
00000000
00000000
00000000
00000000
00000000
00000000
00000000
00000000
00000000
FFFFC000
FFFFC000
FFFFC000
FFFFC000
0003C000
0003C000
0003C000
0003C000
FFFFC000
FFFFC000
FFFFC000
FFFFC000
0003C000
0003C000
0003C000
0003C000
0003C000
0003C000
0003C000
0003C000
0003C000
0003C000
ENDCHAR
STARTCHAR U+2563
ENCODING 9571
SWIDTH 500 0
DWIDTH 32 0
BBX 32 32 0 0
BITMAP
003C3C00
003C3C00
003C3C00
003C3C00
003C3C00
003C3C00
003C3C00
003C3C00
003C3C00
003C3C00
FFFC3C00
FFFC3C00
FFFC3C00
FFFC3C00
00003C00
00003C00
00003C00
00003C00
FFFC3C00
FFFC3C00
FFFC3C00
FFFC3C00
003C3C00
003C3C00
003C3C00
003C3C00
003C3C00
003C3C00
003C3C00
003C3C00
003C3C00
003C3C00
ENDCHAR
STARTCHAR U+2551
ENCODING 9553
SWIDTH 500 0
DWIDTH 32 0
BBX 32 32 0 0
BITMAP
003C3C00
003C3C00
003C3C00
003C3C00
003C3C00
003C3C00
003C3C00
003C3C00
003C3C00
003C3C00
003C3C00
003C3C00
003C3C00
003C3C00
003C3C00
003C3C00
003C3C00
003C3C00
003C3C00
003C3C00
003C3C00
003C3C00
003C3C00
003C3C00
003C3C00
003C3C00
003C3C00
003C3C00
003C3C00
003C3C00
003C3C00
003C3C00
ENDCHAR
STARTCHAR U+2557
ENCODING 9559
SWIDTH 500 0
DWIDTH 32 0
BBX 32 32 0 0
BITMAP
00000000
00000000
00000000
00000000
00000000
00000000
00000000
00000000
00000000
00000000
FFFFFC00
FFFFFC00
FFFFFC00
FFFFFC00
00003C00
00003C00
00003C00
00003C00
FFFC3C00
FFFC3C00
FFFC3C00
FFFC3C00
003C3C00
003C3C00
003C3C00
003C3C00
003C3C00
003C3C00
003C3C00
003C3C00
003C3C00
003C3C00
ENDCHAR
STARTCHAR U+255D
ENCODING 9565
SWIDTH 500 0
DWIDTH 32 0
BBX 32 32 0 0
BITMAP
003C3C00
003C3C00
003C3C00
003C3C00
003C3C00
003C3C00
003C3C00
003C3C00
003C3C00
003C3C00
FFFC3C00
FFFC3C00
FFFC3C00
FFFC3C00
00003C00
00003C00
00003C00
00003C00
FFFFFC00
FFFFFC00
FFFFFC00
FFFFFC00
00000000
00000000
00000000
00000000
00000000
00000000
00000000
00000000
00000000
00000000
ENDCHAR
STARTCHAR U+255C
ENCODING 9564
SWIDTH 500 0
DWIDTH 32 0
BBX 32 32 0 0
BITMAP
003C3C00
003C3C00
003C3C00
003C3C00
003C3C00
003C3C00
003C3C00
003C3C00
003C3C00
003C3C00
003C3C00
003C3C00
003C3C00
003C3C00
FFFFFC00
FFFFFC00
FFFFFC00
FFFFFC00
00000000
00000000
00000000
00000000
00000000
00000000
00000000
00000000
00000000
00000000
00000000
00000000
00000000
00000000
ENDCHAR
STARTCHAR U+255B
ENCODING 9563
SWIDTH 500 0
DWIDTH 32 0
BBX 32 32 0 0
BITMAP
0003C000
0003C000
0003C000
0003C000
0003C000
0003C000
0003C000
0003C000
0003C000
0003C000
FFFFC000
FFFFC000
FFFFC000
FFFFC000
0003C000
0003C000
0003C000
0003C000
FFFFC000
FFFFC000
FFFFC000
FFFFC000
00000000
00000000
00000000
00000000
00000000
00000000
00000000
00000000
00000000
00000000
ENDCHAR
STARTCHAR U+2510
ENCODING 9488
SWIDTH 500 0
DWIDTH 32 0
BBX 32 32 0 0
BITMAP
00000000
00000000
00000000
00000000
00000000
00000000
00000000
00000000
00000000
00000000
00000000
00000000
00000000
00000000
FFFFC000
FFFFC000
FFFFC000
FFFFC000
0003C000
0003C000
0003C000
0003C000
0003C000
0003C000
0003C000
0003C000
0003C000
0003C000
0003C000
0003C000
0003C000
0003C000
ENDCHAR
STARTCHAR U+2514
ENCODING 9492
SWIDTH 500 0
DWIDTH 32 0
BBX 32 32 0 0
BITMAP
0003C000
0003C000
0003C000
0003C000
0003C000
0003C000
0003C000
0003C000
0003C000
0003C000
0003C000
0003C000
0003C000
0003C000
0003FFFF
0003FFFF
0003FFFF
0003FFFF
00000000
00000000
00000000
00000000
00000000
00000000
00000000
00000000
00000000
00000000
00000000
00000000
00000000
00000000
ENDCHAR
STARTCHAR U+2534
ENCODING 9524
SWIDTH 500 0
DWIDTH 32 0
BBX 32 32 0 0
BITMAP
0003C000
0003C000
0003C000
0003C000
0003C000
0003C000
0003C000
0003C000
0003C000
0003C000
0003C000
0003C000
0003C000
0003C000
FFFFFFFF
FFFFFFFF
FFFFFFFF
FFFFFFFF
00000000
00000000
00000000
00000000
00000000
00000000
00000000
00000000
00000000
00000000
00000000
00000000
00000000
00000000
ENDCHAR
STARTCHAR U+252C
ENCODING 9516
SWIDTH 500 0
DWIDTH 32 0
BBX 32 32 0 0
BITMAP
00000000
00000000
00000000
00000000
00000000
00000000
00000000
00000000
00000000
00000000
00000000
00000000
00000000
00000000
FFFFFFFF
FFFFFFFF
FFFFFFFF
FFFFFFFF
0003C000
0003C000
0003C000
0003C000
0003C000
0003C000
0003C000
0003C000
0003C000
0003C000
0003C000
0003C000
0003C000
0003C000
ENDCHAR
STARTCHAR U+251C
ENCODING 9500
SWIDTH 500 0
DWIDTH 32 0
BBX 32 32 0 0
BITMAP
0003C000
0003C000
0003C000
0003C000
0003C000
0003C000
0003C000
0003C000
0003C000
0003C000
0003C000
0003C000
0003C000
0003C000
0003FFFF
0003FFFF
0003FFFF
0003FFFF
0003C000
0003C000
0003C000
0003C000
0003C000
0003C000
0003C000
0003C000
0003C000
0003C000
0003C000
0003C000
0003C000
0003C000
ENDCHAR
STARTCHAR U+2500
ENCODING 9472
SWIDTH 500 0
DWIDTH 32 0
BBX 32 32 0 0
BITMAP
00000000
00000000
00000000
00000000
00000000
00000000
00000000
00000000
00000000
00000000
00000000
00000000
00000000
00000000
FFFFFFFF
FFFFFFFF
FFFFFFFF
FFFFFFFF
00000000
00000000
00000000
00000000
00000000
00000000
00000000
00000000
00000000
00000000
00000000
00000000
00000000
00000000
ENDCHAR
STARTCHAR U+253C
ENCODING 9532
SWIDTH 500 0
DWIDTH 32 0
BBX 32 32 0 0
BITMAP
0003C000
0003C000
0003C000
0003C000
0003C000
0003C000
0003C000
0003C000
0003C000
0003C000
0003C000
0003C000
0003C000
0003C000
FFFFFFFF
FFFFFFFF
FFFFFFFF
FFFFFFFF
0003C000
0003C000
0003C000
0003C000
0003C000
0003C000
0003C000
0003C000
0003C000
0003C000
0003C000
0003C000
0003C000
0003C000
ENDCHAR
STARTCHAR U+255E
ENCODING 9566
SWIDTH 500 0
DWIDTH 32 0
BBX 32 32 0 0
BITMAP
0003C000
0003C000
0003C000
0003C000
0003C000
0003C000
0003C000
0003C000
0003C000
0003C000
0003FFFF
0003FFFF
0003FFFF
0003FFFF
0003C000
0003C000
0003C000
0003C000
0003FFFF
0003FFFF
0003FFFF
0003FFFF
0003C000
0003C000
0003C000
0003C000
0003C000
0003C000
0003C000
0003C000
0003C000
0003C000
ENDCHAR
STARTCHAR U+255F
ENCODING 9567
SWIDTH 500 0
DWIDTH 32 0
BBX 32 32 0 0
BITMAP
003C3C00
003C3C00
003C3C00
003C3C00
003C3C00
003C3C00
003C3C00
003C3C00
003C3C00
003C3C00
003C3C00
003C3C00
003C3C00
003C3C00
003C3FFF
003C3FFF
003C3FFF
003C3FFF
003C3C00
003C3C00
003C3C00
003C3C00
003C3C00
003C3C00
003C3C00
003C3C00
003C3C00
003C3C00
003C3C00
003C3C00
003C3C00
003C3C00
ENDCHAR
STARTCHAR U+255A
ENCODING 9562
SWIDTH 500 0
DWIDTH 32 0
BBX 32 32 0 0
BITMAP
003C3C00
003C3C00
003C3C00
003C3C00
003C3C00
003C3C00
003C3C00
003C3C00
003C3C00
003C3C00
003C3FFF
003C3FFF
003C3FFF
003C3FFF
003C0000
003C0000
003C0000
003C0000
003FFFFF
003FFFFF
003FFFFF
003FFFFF
00000000
00000000
00000000
00000000
00000000
00000000
00000000
00000000
00000000
00000000
ENDCHAR
STARTCHAR U+2554
ENCODING 9556
SWIDTH 500 0
DWIDTH 32 0
BBX 32 32 0 0
BITMAP
00000000
00000000
00000000
00000000
00000000
00000000
00000000
00000000
00000000
00000000
003FFFFF
003FFFFF
003FFFFF
003FFFFF
003C0000
003C0000
003C0000
003C0000
003C3FFF
003C3FFF
003C3FFF
003C3FFF
003C3C00
003C3C00
003C3C00
003C3C00
003C3C00
003C3C00
003C3C00
003C3C00
003C3C00
003C3C00
ENDCHAR
STARTCHAR U+2569
ENCODING 9577
SWIDTH 500 0
DWIDTH 32 0
BBX 32 32 0 0
BITMAP
003C3C00
003C3C00
003C3C00
003C3C00
003C3C00
003C3C00
003C3C00
003C3C00
003C3C00
003C3C00
FFFC3FFF
FFFC3FFF
FFFC3FFF
FFFC3FFF
00000000
00000000
00000000
00000000
FFFFFFFF
FFFFFFFF
FFFFFFFF
FFFFFFFF
00000000
00000000
00000000
00000000
00000000
00000000
00000000
00000000
00000000
00000000
ENDCHAR
STARTCHAR U+2566
ENCODING 9574
SWIDTH 500 0
DWIDTH 32 0
BBX 32 32 0 0
BITMAP
00000000
00000000
00000000
00000000
00000000
00000000
00000000
00000000
00000000
00000000
FFFFFFFF
FFFFFFFF
FFFFFFFF
FFFFFFFF
00000000
00000000
00000000
00000000
FFFC3FFF
FFFC3FFF
FFFC3FFF
FFFC3FFF
003C3C00
003C3C00
003C3C00
003C3C00
003C3C00
003C3C00
003C3C00
003C3C00
003C3C00
003C3C00
ENDCHAR
STARTCHAR U+2560
ENCODING 9568
SWIDTH 500 0
DWIDTH 32 0
BBX 32 32 0 0
BITMAP
003C3C00
003C3C00
003C3C00
003C3C00
003C3C00
003C3C00
003C3C00
003C3C00
003C3C00
003C3C00
003C3FFF
003C3FFF
003C3FFF
003C3FFF
003C0000
003C0000
003C0000
003C0000
003C3FFF
003C3FFF
003C3FFF
003C3FFF
003C3C00
003C3C00
003C3C00
003C3C00
003C3C00
003C3C00
003C3C00
003C3C00
003C3C00
003C3C00
ENDCHAR
STARTCHAR U+2550
ENCODING 9552
SWIDTH 500 0
DWIDTH 32 0
BBX 32 32 0 0
BITMAP
00000000
00000000
00000000
00000000
00000000
00000000
00000000
00000000
00000000
00000000
FFFFFFFF
FFFFFFFF
FFFFFFFF
FFFFFFFF
00000000
00000000
00000000
00000000
FFFFFFFF
FFFFFFFF
FFFFFFFF
FFFFFFFF
00000000
00000000
00000000
00000000
00000000
00000000
00000000
00000000
00000000
00000000
ENDCHAR
STARTCHAR U+256C
ENCODING 9580
SWIDTH 500 0
DWIDTH 32 0
BBX 32 32 0 0
BITMAP
003C3C00
003C3C00
003C3C00
003C3C00
003C3C00
003C3C00
003C3C00
003C3C00
003C3C00
003C3C00
FFFC3FFF
FFFC3FFF
FFFC3FFF
FFFC3FFF
00000000
00000000
00000000
00000000
FFFC3FFF
FFFC3FFF
FFFC3FFF
FFFC3FFF
003C3C00
003C3C00
003C3C00
003C3C00
003C3C00
003C3C00
003C3C00
003C3C00
003C3C00
003C3C00
ENDCHAR
STARTCHAR U+2567
ENCODING 9575
SWIDTH 500 0
DWIDTH 32 0
BBX 32 32 0 0
BITMAP
0003C000
0003C000
0003C000
0003C000
0003C000
0003C000
0003C000
0003C000
0003C000
0003C000
FFFFFFFF
FFFFFFFF
FFFFFFFF
FFFFFFFF
00000000
00000000
00000000
00000000
FFFFFFFF
FFFFFFFF
FFFFFFFF
FFFFFFFF
00000000
00000000
00000000
00000000
00000000
00000000
00000000
00000000
00000000
00000000
ENDCHAR
STARTCHAR U+2568
ENCODING 9576
SWIDTH 500 0
DWIDTH 32 0
BBX 32 32 0 0
BITMAP
003C3C00
003C3C00
003C3C00
003C3C00
003C3C00
003C3C00
003C3C00
003C3C00
003C3C00
003C3C00
003C3C00
003C3C00
003C3C00
003C3C00
FFFFFFFF
FFFFFFFF
FFFFFFFF
FFFFFFFF
00000000
00000000
00000000
00000000
00000000
00000000
00000000
00000000
00000000
00000000
00000000
00000000
00000000
00000000
ENDCHAR
STARTCHAR U+2564
ENCODING 9572
SWIDTH 500 0
DWIDTH 32 0
BBX 32 32 0 0
BITMAP
00000000
00000000
00000000
00000000
00000000
00000000
00000000
00000000
00000000
00000000
FFFFFFFF
FFFFFFFF
FFFFFFFF
FFFFFFFF
00000000
00000000
00000000
00000000
FFFFFFFF
FFFFFFFF
FFFFFFFF
FFFFFFFF
0003C000
0003C000
0003C000
0003C000
0003C000
0003C000
0003C000
0003C000
0003C000
0003C000
ENDCHAR
STARTCHAR U+2565
ENCODING 9573
SWIDTH 500 0
DWIDTH 32 0
BBX 32 32 0 0
BITMAP
00000000
00000000
00000000
00000000
00000000
00000000
00000000
00000000
00000000
00000000
00000000
00000000
00000000
00000000
FFFFFFFF
FFFFFFFF
FFFFFFFF
FFFFFFFF
003C3C00
003C3C00
003C3C00
003C3C00
003C3C00
003C3C00
003C3C00
003C3C00
003C3C00
003C3C00
003C3C00
003C3C00
003C3C00
003C3C00
ENDCHAR
STARTCHAR U+2559
ENCODING 9561
SWIDTH 500 0
DWIDTH 32 0
BBX 32 32 0 0
BITMAP
003C3C00
003C3C00
003C3C00
003C3C00
003C3C00
003C3C00
003C3C00
003C3C00
003C3C00
003C3C00
003C3C00
003C3C00
003C3C00
003C3C00
003FFFFF
003FFFFF
003FFFFF
003FFFFF
00000000
00000000
00000000
00000000
00000000
00000000
00000000
00000000
00000000
00000000
00000000
00000000
00000000
00000000
ENDCHAR
STARTCHAR U+2558
ENCODING 9560
SWIDTH 500 0
DWIDTH 32 0
BBX 32 32 0 0
BITMAP
0003C000
0003C000
0003C000
0003C000
0003C000
0003C000
0003C000
0003C000
0003C000
0003C000
0003FFFF
0003FFFF
0003FFFF
0003FFFF
0003C000
0003C000
0003C000
0003C000
0003FFFF
0003FFFF
0003FFFF
0003FFFF
00000000
00000000
00000000
00000000
00000000
00000000
00000000
00000000
00000000
00000000
ENDCHAR
STARTCHAR U+2552
ENCODING 9554
SWIDTH 500 0
DWIDTH 32 0
BBX 32 32 0 0
BITMAP
00000000
00000000
00000000
00000000
00000000
00000000
00000000
00000000
00000000
00000000
0003FFFF
0003FFFF
0003FFFF
0003FFFF
0003C000
0003C000
0003C000
0003C000
0003FFFF
0003FFFF
0003FFFF
0003FFFF
0003C000
0003C000
0003C000
0003C000
0003C000
0003C000
0003C000
0003C000
0003C000
0003C000
ENDCHAR
STARTCHAR U+2553
ENCODING 9555
SWIDTH 500 0
DWIDTH 32 0
BBX 32 32 0 0
BITMAP
00000000
00000000
00000000
00000000
00000000
00000000
00000000
00000000
00000000
00000000
00000000
00000000
00000000
00000000
003FFFFF
003FFFFF
003FFFFF
003FFFFF
003C3C00
003C3C00
003C3C00
003C3C00
003C3C00
003C3C00
003C3C00
003C3C00
003C3C00
003C3C00
003C3C00
003C3C00
003C3C00
003C3C00
ENDCHAR
STARTCHAR U+256B
ENCODING 9579
SWIDTH 500 0
DWIDTH 32 0
BBX 32 32 0 0
BITMAP
003C3C00
003C3C00
003C3C00
003C3C00
003C3C00
003C3C00
003C3C00
003C3C00
003C3C00
003C3C00
003C3C00
003C3C00
003C3C00
003C3C00
FFFC3FFF
FFFC3FFF
FFFC3FFF
FFFC3FFF
003C3C00
003C3C00
003C3C00
003C3C00
003C3C00
003C3C00
003C3C00
003C3C00
003C3C00
003C3C00
003C3C00
003C3C00
003C3C00
003C3C00
ENDCHAR
STARTCHAR U+256A
ENCODING 9578
SWIDTH 500 0
DWIDTH 32 0
BBX 32 32 0 0
BITMAP
0003C000
0003C000
0003C000
0003C000
0003C000
0003C000
0003C000
0003C000
0003C000
0003C000
FFFFFFFF
FFFFFFFF
FFFFFFFF
FFFFFFFF
00000000
00000000
00000000
00000000
FFFFFFFF
FFFFFFFF
FFFFFFFF
FFFFFFFF
0003C000
0003C000
0003C000
0003C000
0003C000
0003C000
0003C000
0003C000
0003C000
0003C000
ENDCHAR
STARTCHAR U+2518
ENCODING 9496
SWIDTH 500 0
DWIDTH 32 0
BBX 32 32 0 0
BITMAP
0003C000
0003C000
0003C000
0003C000
0003C000
0003C000
0003C000
0003C000
0003C000
0003C000
0003C000
0003C000
0003C000
0003C000
FFFFC000
FFFFC000
FFFFC000
FFFFC000
00000000
00000000
00000000
00000000
00000000
00000000
00000000
00000000
00000000
00000000
00000000
00000000
00000000
00000000
ENDCHAR
STARTCHAR U+250C
ENCODING 9484
SWIDTH 500 0
DWIDTH 32 0
BBX 32 32 0 0
BITMAP
00000000
00000000
00000000
00000000
00000000
00000000
00000000
00000000
00000000
00000000
00000000
00000000
00000000
00000000
0003FFFF
0003FFFF
0003FFFF
0003FFFF
0003C000
0003C000
0003C000
0003C000
0003C000
0003C000
0003C000
0003C000
0003C000
0003C000
0003C000
0003C000
0003C000
0003C000
ENDCHAR
STARTCHAR U+2588
ENCODING 9608
SWIDTH 500 0
DWIDTH 32 0
BBX 32 32 0 0
BITMAP
FFFFFFFF
FFFFFFFF
FFFFFFFF
FFFFFFFF
FFFFFFFF
FFFFFFFF
FFFFFFFF
FFFFFFFF
FFFFFFFF
FFFFFFFF
FFFFFFFF
FFFFFFFF
FFFFFFFF
FFFFFFFF
FFFFFFFF
FFFFFFFF
FFFFFFFF
FFFFFFFF
FFFFFFFF
FFFFFFFF
FFFFFFFF
FFFFFFFF
FFFFFFFF
FFFFFFFF
FFFFFFFF
FFFFFFFF
FFFFFFFF
FFFFFFFF
FFFFFFFF
FFFFFFFF
FFFFFFFF
FFFFFFFF
ENDCHAR
STARTCHAR U+2584
ENCODING 9604
SWIDTH 500 0
DWIDTH 32 0
BBX 32 32 0 0
BITMAP
00000000
00000000
00000000
00000000
00000000
00000000
00000000
00000000
00000000
00000000
00000000
00000000
00000000
00000000
00000000
00000000
FFFFFFFF
FFFFFFFF
FFFFFFFF
FFFFFFFF
FFFFFFFF
FFFFFFFF
FFFFFFFF
FFFFFFFF
FFFFFFFF
FFFFFFFF
FFFFFFFF
FFFFFFFF
FFFFFFFF
FFFFFFFF
FFFFFFFF
FFFFFFFF
ENDCHAR
STARTCHAR U+258C
ENCODING 9612
SWIDTH 500 0
DWIDTH 32 0
BBX 32 32 0 0
BITMAP
FFFF0000
FFFF0000
FFFF0000
FFFF0000
FFFF0000
FFFF0000
FFFF0000
FFFF0000
FFFF0000
FFFF0000
FFFF0000
FFFF0000
FFFF0000
FFFF0000
FFFF0000
FFFF0000
FFFF0000
FFFF0000
FFFF0000
FFFF0000
FFFF0000
FFFF0000
FFFF0000
FFFF0000
FFFF0000
FFFF0000
FFFF0000
FFFF0000
FFFF0000
FFFF0000
FFFF0000
FFFF0000
ENDCHAR
STARTCHAR U+2590
ENCODING 9616
SWIDTH 500 0
DWIDTH 32 0
BBX 32 32 0 0
BITMAP
0000FFFF
0000FFFF
0000FFFF
0000FFFF
0000FFFF
0000FFFF
0000FFFF
0000FFFF
0000FFFF
0000FFFF
0000FFFF
0000FFFF
0000FFFF
0000FFFF
0000FFFF
0000FFFF
0000FFFF
0000FFFF
0000FFFF
0000FFFF
0000FFFF
0000FFFF
0000FFFF
0000FFFF
0000FFFF
0000FFFF
0000FFFF
0000FFFF
0000FFFF
0000FFFF
0000FFFF
0000FFFF
ENDCHAR
STARTCHAR U+2580
ENCODING 9600
SWIDTH 500 0
DWIDTH 32 0
BBX 32 32 0 0
BITMAP
FFFFFFFF
FFFFFFFF
FFFFFFFF
FFFFFFFF
FFFFFFFF
FFFFFFFF
FFFFFFFF
FFFFFFFF
FFFFFFFF
FFFFFFFF
FFFFFFFF
FFFFFFFF
FFFFFFFF
FFFFFFFF
FFFFFFFF
FFFFFFFF
00000000
00000000
00000000
00000000
00000000
00000000
00000000
00000000
00000000
00000000
00000000
00000000
00000000
00000000
00000000
00000000
ENDCHAR
STARTCHAR U+03B1
ENCODING 945
SWIDTH 500 0
DWIDTH 32 0
BBX 32 32 0 0
BITMAP
00000000
00000000
00000000
00000000
00000000
00000000
00000000
00000000
00FF0FC0
00FF0FC0
03FFFFC0
03FFFFC0
03F0FFC0
03F0FFC0
03C03F00
03C03F00
03C03F00
03C03F00
03F0FFC0
03F0FFC0
03FFFFC0
03FFFFC0
00FF0FC0
00FF0FC0
00000000
00000000
00000000
00000000
00000000
00000000
00000000
00000000
ENDCHAR
STARTCHAR U+00DF
ENCODING 223
SWIDTH 500 0
DWIDTH 32 0
BBX 32 32 0 0
BITMAP
00000000
00000000
00000000
00000000
003FFF00
003FFF00
00FC0FC0
00FC0FC0
00FC0FC0
00FC0FC0
00FC0FC0
00FC0FC0
00FCFF00
00FCFF00
00FC0FC0
00FC0FC0
00FC0FC0
00FC0FC0
00FC0FC0
00FC0FC0
00FC0FC0
00FC0FC0
00FFFFC0
00FFFFC0
00FFFF00
00FFFF00
00FC0000
00FC0000
003F0000
003F0000
00000000
00000000
ENDCHAR
STARTCHAR U+0393
ENCODING 915
SWIDTH 500 0
DWIDTH 32 0
BBX 32 32 0 0
BITMAP
00000000
00000000
00000000
00000000
03FFFFC0
03FFFFC0
03F03FC0
03F03FC0
03F03FC0
03F03FC0
03F03FC0
03F03FC0
03F00000
03F00000
03F00000
03F00000
03F00000
03F00000
03F00000
03F00000
03F00000
03F00000
03F00000
03F00000
03F00000
03F00000
03F00000
03F00000
00000000
00000000
00000000
00000000
ENDCHAR
STARTCHAR U+03C0
ENCODING 960
SWIDTH 500 0
DWIDTH 32 0
BBX 32 32 0 0
BITMAP
00000000
00000000
00000000
00000000
0FFFFFF0
0FFFFFF0
0FFFFFF0
0FFFFFF0
00FC3F00
00FC3F00
00FC3F00
00FC3F00
00FC3F00
00FC3F00
00FC3F00
00FC3F00
00FC3F00
00FC3F00
00FC3F00
00FC3F00
00FC3F00
00FC3F00
00FC3F00
00FC3F00
00FC3F00
00FC3F00
00FC0FF0
00FC0FF0
00000000
00000000
00000000
00000000
ENDCHAR
STARTCHAR U+03A3
ENCODING 931
SWIDTH 500 0
DWIDTH 32 0
BBX 32 32 0 0
BITMAP
00000000
00000000
00000000
00000000
03FFFFC0
03FFFFC0
03F00FC0
03F00FC0
03F003C0
03F003C0
00FC00C0
00FC00C0
003F0000
003F0000
000FC000
000FC000
000FC000
000FC000
003F0000
003F0000
00FC00C0
00FC00C0
03F003C0
03F003C0
03F00FC0
03F00FC0
03FFFFC0
03FFFFC0
00000000
00000000
00000000
00000000
ENDCHAR
STARTCHAR U+03C3
ENCODING 963
SWIDTH 500 0
DWIDTH 32 0
BBX 32 32 0 0
BITMAP
00000000
00000000
00000000
00000000
00000000
00000000
00000000
00000000
00000000
00000000
00000000
00000000
00FFFFC0
00FFFFC0
03F03C00
03F03C00
03F03C00
03F03C00
03F03F00
03F03F00
03F03F00
03F03F00
03F03F00
03F03F00
03F03F00
03F03F00
00FFFC00
00FFFC00
00000000
00000000
00000000
00000000
ENDCHAR
STARTCHAR U+00B5
ENCODING 181
SWIDTH 500 0
DWIDTH 32 0
BBX 32 32 0 0
BITMAP
00000000
00000000
00000000
00000000
00000000
00000000
00000000
00000000
00000000
00000000
00000000
00000000
00FC0FC0
00FC0FC0
00FC0FC0
00FC0FC0
00FC0FC0
00FC0FC0
00FC0FC0
00FC0FC0
00FC0FC0
00FC0FC0
00FC0FC0
00FC0FC0
00FC0FC0
00FC0FC0
00FFF0F0
00FFF0F0
03FC0000
03FC0000
0FC00000
0FC00000
ENDCHAR
STARTCHAR U+03C4
ENCODING 964
SWIDTH 500 0
DWIDTH 32 0
BBX 32 32 0 0
BITMAP
00000000
00000000
00000000
00000000
00000000
00000000
00000000
00000000
00000000
00000000
03FC0FC0
03FC0FC0
0F0FFC00
0F0FFC00
0003F000
0003F000
0003F000
0003F000
0003F000
0003F000
0003F000
0003F000
0003F000
0003F000
0003F000
0003F000
0000FFC0
0000FFC0
00000000
00000000
00000000
00000000
ENDCHAR
STARTCHAR U+03A6
ENCODING 934
SWIDTH 500 0
DWIDTH 32 0
BBX 32 32 0 0
BITMAP
00000000
00000000
00000000
00000000
03FFFFC0
03FFFFC0
000FF000
000FF000
000FF000
000FF000
00FFFF00
00FFFF00
03F00FC0
03F00FC0
03F00FC0
03F00FC0
03F00FC0
03F00FC0
03F00FC0
03F00FC0
00FFFF00
00FFFF00
000FF000
000FF000
000FF000
000FF000
03FFFFC0
03FFFFC0
00000000
00000000
00000000
00000000
ENDCHAR
STARTCHAR U+0398
ENCODING 920
SWIDTH 500 0
DWIDTH 32 0
BBX 32 32 0 0
BITMAP
00000000
00000000
00000000
00000000
00FFFF00
00FFFF00
03F00FC0
03F00FC0
03F00FC0
03F00FC0
03F00FC0
03F00FC0
03F00FC0
03F00FC0
03FFFFC0
03FFFFC0
03FFFFC0
03FFFFC0
03F00FC0
03F00FC0
03F00FC0
03F00FC0
03F00FC0
03F00FC0
03F00FC0
03F00FC0
00FFFF00
00FFFF00
00000000
00000000
00000000
00000000
ENDCHAR
STARTCHAR U+03A9
ENCODING 937
SWIDTH 500 0
DWIDTH 32 0
BBX 32 32 0 0
BITMAP
00000000
00000000
00000000
00000000
03FFFFC0
03FFFFC0
0FC003F0
0FC003F0
0FC003F0
0FC003F0
0FC003F0
0FC003F0
0FC003F0
0FC003F0
0FC003F0
0FC003F0
0FF00FF0
0FF00FF0
03FC3FC0
03FC3FC0
00FC3F00
00FC3F00
00FC3F00
00FC3F00
00FC3F00
00FC3F00
0FFC3FF0
0FFC3FF0
00000000
00000000
00000000
00000000
ENDCHAR
STARTCHAR U+03B4
ENCODING 948
SWIDTH 500 0
DWIDTH 32 0
BBX 32 32 0 0
BITMAP
00000000
00000000
00000000
00000000
000FFFC0
000FFFC0
003F0000
003F0000
003F0000
003F0000
000FC000
000FC000
00FFFF00
00FFFF00
03F00FC0
03F00FC0
03F00FC0
03F00FC0
03F00FC0
03F00FC0
03F00FC0
03F00FC0
03F00FC0
03F00FC0
03F00FC0
03F00FC0
00FFFF00
00FFFF00
00000000
00000000
00000000
00000000
ENDCHAR
STARTCHAR U+221E
ENCODING 8734
SWIDTH 500 0
DWIDTH 32 0
BBX 32 32 0 0
BITMAP
00000000
00000000
00000000
00000000
00000000
00000000
00000000
00000000
00000000
00000000
03FF3FC0
03FF3FC0
0FC3C3F0
0FC3C3F0
0FC3C3F0
0FC3C3F0
0FC3C3F0
0FC3C3F0
0FC3C3F0
0FC3C3F0
03FCFFC0
03FCFFC0
00000000
00000000
00000000
00000000
00000000
00000000
00000000
00000000
00000000
00000000
ENDCHAR
STARTCHAR U+03C6
ENCODING 966
SWIDTH 500 0
DWIDTH 32 0
BBX 32 32 0 0
BITMAP
00000000
00000000
00000000
00000000
00000000
00000000
000000C0
000000C0
000FF300
000FF300
003FFC00
003FFC00
00F03F00
00F03F00
00F0CF00
00F0CF00
00F30F00
00F30F00
00FC0F00
00FC0F00
003FFC00
003FFC00
00CFF000
00CFF000
03000000
03000000
00000000
00000000
00000000
00000000
00000000
00000000
ENDCHAR
STARTCHAR U+03B5
ENCODING 949
SWIDTH 500 0
DWIDTH 32 0
BBX 32 32 0 0
BITMAP
00000000
00000000
00000000
00000000
003FFF00
003FFF00
00FC0000
00FC0000
00F00000
00F00000
03C00000
03C00000
03C00000
03C00000
03FFFF00
03FFFF00
03FFFF00
03FFFF00
03C00000
03C00000
03C00000
03C00000
00F00000
00F00000
00FC0000
00FC0000
003FFF00
003FFF00
00000000
00000000
00000000
00000000
ENDCHAR
STARTCHAR U+2229
ENCODING 8745
SWIDTH 500 0
DWIDTH 32 0
BBX 32 32 0 0
BITMAP
00000000
00000000
00000000
00000000
00000000
00000000
00000000
00000000
003FFC00
003FFC00
00FC3F00
00FC3F00
03F00FC0
03F00FC0
03F00FC0
03F00FC0
03F00FC0
03F00FC0
03F00FC0
03F00FC0
03F00FC0
03F00FC0
03F00FC0
03F00FC0
03F00FC0
03F00FC0
03F00FC0
03F00FC0
00000000
00000000
00000000
00000000
ENDCHAR
STARTCHAR U+2261
ENCODING 8801
SWIDTH 500 0
DWIDTH 32 0
BBX 32 32 0 0
BITMAP
00000000
00000000
00000000
00000000
00000000
00000000
03FFFFC0
03FFFFC0
03FFFFC0
03FFFFC0
00000000
00000000
00000000
00000000
03FFFFC0
03FFFFC0
03FFFFC0
03FFFFC0
00000000
00000000
00000000
00000000
03FFFFC0
03FFFFC0
03FFFFC0
03FFFFC0
00000000
00000000
00000000
00000000
00000000
00000000
ENDCHAR
STARTCHAR U+00B1
ENCODING 177
SWIDTH 500 0
DWIDTH 32 0
BBX 32 32 0 0
BITMAP
00000000
00000000
00000000
00000000
0003C000
0003C000
0003C000
0003C000
0003C000
0003C000
03FFFFC0
03FFFFC0
03FFFFC0
03FFFFC0
0003C000
0003C000
0003C000
0003C000
0003C000
0003C000
00000000
00000000
03FFFFC0
03FFFFC0
03FFFFC0
03FFFFC0
00000000
00000000
00000000
00000000
00000000
00000000
ENDCHAR
STARTCHAR U+2265
ENCODING 8805
SWIDTH 500 0
DWIDTH 32 0
BBX 32 32 0 0
BITMAP
00000000
00000000
00000000
00000000
003F0000
003F0000
000FC000
000FC000
0003F000
0003F000
0000FC00
0000FC00
0000FC00
0000FC00
0003F000
0003F000
000FC000
000FC000
003F0000
003F0000
00000000
00000000
03FFFFC0
03FFFFC0
03FFFFC0
03FFFFC0
00000000
00000000
00000000
00000000
00000000
00000000
ENDCHAR
STARTCHAR U+2264
ENCODING 8804
SWIDTH 500 0
DWIDTH 32 0
BBX 32 32 0 0
BITMAP
00000000
00000000
00000000
00000000
0000FC00
0000FC00
0003F000
0003F000
000FC000
000FC000
003F0000
003F0000
003F0000
003F0000
000FC000
000FC000
0003F000
0003F000
0000FC00
0000FC00
00000000
00000000
03FFFFC0
03FFFFC0
03FFFFC0
03FFFFC0
00000000
00000000
00000000
00000000
00000000
00000000
ENDCHAR
STARTCHAR U+2320
ENCODING 8992
SWIDTH 500 0
DWIDTH 32 0
BBX 32 32 0 0
BITMAP
00000000
00000000
00000000
00000000
003FF000
003FF000
00FFFC00
00FFFC00
00FC3F00
00FC3F00
00FC3F00
00FC3F00
00FC0000
00FC0000
00FC0000
00FC0000
00FC0000
00FC0000
00FC0000
00FC0000
00FC0000
00FC0000
00FC0000
00FC0000
00FC0000
00FC0000
00FC0000
00FC0000
00FC0000
00FC0000
00FC0000
00FC0000
ENDCHAR
STARTCHAR U+2321
ENCODING 8993
SWIDTH 500 0
DWIDTH 32 0
BBX 32 32 0 0
BITMAP
00003F00
00003F00
00003F00
00003F00
00003F00
00003F00
00003F00
00003F00
00003F00
00003F00
00003F00
00003F00
00003F00
00003F00
00003F00
00003F00
00003F00
00003F00
00003F00
00003F00
00FC3F00
00FC3F00
00FC3F00
00FC3F00
003FFF00
003FFF00
000FFC00
000FFC00
00000000
00000000
00000000
00000000
ENDCHAR
STARTCHAR U+00F7
ENCODING 247
SWIDTH 500 0
DWIDTH 32 0
BBX 32 32 0 0
BITMAP
00000000
00000000
00000000
00000000
00000000
00000000
0003C000
0003C000
0003C000
0003C000
00000000
00000000
00000000
00000000
03FFFFC0
03FFFFC0
03FFFFC0
03FFFFC0
00000000
00000000
00000000
00000000
0003C000
0003C000
0003C000
0003C000
00000000
00000000
00000000
00000000
00000000
00000000
ENDCHAR
STARTCHAR U+2248
ENCODING 8776
SWIDTH 500 0
DWIDTH 32 0
BBX 32 32 0 0
BITMAP
00000000
00000000
00000000
00000000
00000000
00000000
00FC00F0
00FC00F0
03FFC3F0
03FFC3F0
0FC3FFC0
0FC3FFC0
0F003F00
0F003F00
00000000
00000000
00000000
00000000
00FC00F0
00FC00F0
03FFC3F0
03FFC3F0
0FC3FFC0
0FC3FFC0
0F003F00
0F003F00
00000000
00000000
00000000
00000000
00000000
00000000
ENDCHAR
STARTCHAR U+00B0
ENCODING 176
SWIDTH 500 0
DWIDTH 32 0
BBX 32 32 0 0
BITMAP
00000000
00000000
00000000
00000000
000FF000
000FF000
003C3C00
003C3C00
00F00F00
00F00F00
00F00F00
00F00F00
00F00F00
00F00F00
003C3C00
003C3C00
000FF000
000FF000
00000000
00000000
00000000
00000000
00000000
00000000
00000000
00000000
00000000
00000000
00000000
00000000
00000000
00000000
ENDCHAR
STARTCHAR U+2219
ENCODING 8729
SWIDTH 500 0
DWIDTH 32 0
BBX 32 32 0 0
BITMAP
00000000
00000000
00000000
00000000
00000000
00000000
00000000
00000000
00000000
00000000
00000000
00000000
0003C000
0003C000
000FF000
000FF000
000FF000
000FF000
0003C000
0003C000
00000000
00000000
00000000
00000000
00000000
00000000
00000000
00000000
00000000
00000000
00000000
00000000
ENDCHAR
STARTCHAR U+00B7
ENCODING 183
SWIDTH 500 0
DWIDTH 32 0
BBX 32 32 0 0
BITMAP
00000000
00000000
00000000
00000000
00000000
00000000
00000000
00000000
00000000
00000000
00000000
00000000
00000000
00000000
0003C000
0003C000
0003C000
0003C000
00000000
00000000
00000000
00000000
00000000
00000000
00000000
00000000
00000000
00000000
00000000
00000000
00000000
00000000
ENDCHAR
STARTCHAR U+221A
ENCODING 8730
SWIDTH 500 0
DWIDTH 32 0
BBX 32 32 0 0
BITMAP
00000000
00000000
00000000
00000000
00000FF0
00000FF0
00000C00
00000C00
00000C00
00000C00
00000C00
00000C00
00000C00
00000C00
0FC00C00
0FC00C00
03F00C00
03F00C00
00FC0C00
00FC0C00
003F0C00
003F0C00
000FFC00
000FFC00
0003FC00
0003FC00
0000FC00
0000FC00
00000000
00000000
00000000
00000000
ENDCHAR
STARTCHAR U+207F
ENCODING 8319
SWIDTH 500 0
DWIDTH 32 0
BBX 32 32 0 0
BITMAP
00000000
00000000
00000000
00000000
03F3FC00
03F3FC00
00FC3F00
00FC3F00
00FC3F00
00FC3F00
00FC3F00
00FC3F00
00FC3F00
00FC3F00
00FC3F00
00FC3F00
00FC3F00
00FC3F00
00000000
00000000
00000000
00000000
00000000
00000000
00000000
00000000
00000000
00000000
00000000
00000000
00000000
00000000
ENDCHAR
STARTCHAR U+00B2
ENCODING 178
SWIDTH 500 0
DWIDTH 32 0
BBX 32 32 0 0
BITMAP
00000000
00000000
00000000
00000000
00FFFC00
00FFFC00
00003F00
00003F00
00003F00
00003F00
0000FC00
0000FC00
000FF000
000FF000
00FFC000
00FFC000
00FFFF00
00FFFF00
00000000
00000000
00000000
00000000
00000000
00000000
00000000
00000000
00000000
00000000
00000000
00000000
00000000
00000000
ENDCHAR
STARTCHAR U+25A0
ENCODING 9632
SWIDTH 500 0
DWIDTH 32 0
BBX 32 32 0 0
BITMAP
00000000
00000000
00000000
00000000
00000000
00000000
03FFFFC0
03FFFFC0
03FFFFC0
03FFFFC0
03FFFFC0
03FFFFC0
03FFFFC0
03FFFFC0
03FFFFC0
03FFFFC0
03FFFFC0
03FFFFC0
03FFFFC0
03FFFFC0
03FFFFC0
03FFFFC0
03FFFFC0
03FFFFC0
03FFFFC0
03FFFFC0
00000000
00000000
00000000
00000000
00000000
00000000
ENDCHAR
STARTCHAR U+00FF
ENCODING 255
SWIDTH 500 0
DWIDTH 32 0
BBX 32 32 0 0
BITMAP
00000000
00000000
00000000
00000000
00000000
00000000
03FFFFC0
03FFFFC0
030000C0
030000C0
030000C0
030000C0
030000C0
030000C0
030000C0
030000C0
030000C0
030000C0
030000C0
030000C0
030000C0
030000C0
030000C0
030000C0
03FFFFC0
03FFFFC0
00000000
00000000
00000000
00000000
00000000
00000000
ENDCHAR
ENDFONT
